<svg xmlns="http://www.w3.org/2000/svg"
     viewBox="0 0 1 1">
    <path d="M 0.15394112549695427 0.9139411254969543 L 0.16647123564539917 0.902344251518415 L 0.17054021096851146 0.8822862427145433 L 0.18302945982112886 0.8706485074401765 L 0.1871696289971915 0.850661692489255 L 0.1996562239740562 0.8390213033391356 L 0.22032390949309755 0.8355620047311928 L 0.23270299998426644 0.8238141110953776 L 0.24505784685400964 0.8120419738381366 L 0.25738937578785737 0.8002465186450003 L 0.269698409002815 0.7884285677329738 L 0.28198568861986995 0.7765888632230447 L 0.30200134229497444 0.7724775327711649 L 0.31415779379724196 0.7605070001464482 L 0.333857997156139 0.7560802193783613 L 0.3458717112026186 0.7439669492978567 L 0.3578597845987667 0.7318280385670208 L 0.3698228839768475 0.7196641538181173 L 0.3817616439850388 0.7074759296993245 L 0.3936766711099726 0.6952639726972742 L 0.40556854685161364 0.683028864311931 L 0.4106144217394771 0.6639477550728106 L 0.4158754959768583 0.6450818451832075 L 0.427944188651848 0.633023553731213 L 0.45291542992495515 0.6338678108773361 L 0.46469956256562156 0.6215249593910185 L 0.47026140190558413 0.602959814603997 L 0.4882081037302305 0.596779532301659 L 0.4939984038078687 0.5784428482523131 L 0.5116400421941286 0.5719575025115889 L 0.517670544593539 0.5538610207840152 L 0.5294832199605168 0.541546712024009 L 0.5412807777143369 0.5292172856508448 L 0.5582879031810039 0.5220974269905275 L 0.5699072607499904 0.5095898004325301 L 0.5765862156496663 0.4921417712052219 L 0.5883267416112451 0.4797553130398165 L 0.600053838871671 0.4673554261732582 L 0.611767828149624 0.45494243132422724 L 0.6234690251885487 0.4425166442361678 L 0.6351577410130691 0.43007837593370407 L 0.642859901430089 0.4136535522237398 L 0.6584989509244568 0.40516561759112363 L 0.6701520455073705 0.3926917280470531 L 0.6783196646286304 0.37673236304132873 L 0.6901206596592999 0.3644063739450141 L 0.7019125990868261 0.3520713292455563 L 0.7107369315246874 0.33676867755643336 L 0.7254702686921388 0.32737503059690076 L 0.7346291533088435 0.31240693108662115 L 0.7441358670440666 0.2977866606948603 L 0.7562448828310235 0.2857686923548331 L 0.7683490277935416 0.27374585319036715 L 0.7785614415875148 0.2598312828573562 L 0.7908397291890641 0.24798258633192144 L 0.8015960197341763 0.23461189275004937 L 0.8127211467893779 0.22161003567826673 L 0.825417127332022 0.21017903209392663 L 0.8381516300591085 0.19878655069402917 L 0.8496448573394495 0.18615279384738587 L 0.859911355369686 0.17229230775063845 L 0.8714288263110962 0.1596827945650644 L 0.8817292654668297 0.14585624959381394 L 0.8920490995514188 0.13204909955141877 Z"
          fill="black"
          stroke="black"
          stroke-width="0.006"
          stroke-linejoin="round"
          stroke-linecap="round" />
</svg>