<svg xmlns="http://www.w3.org/2000/svg"
     viewBox="0 0 1 1">
    <path d="M 0.14424366106925304 0.904243661069253 L 0.14824366106925305 0.8836258683137791 L 0.16032264572563804 0.8720686774716698 L 0.1728665767872138 0.8604856244062614 L 0.18538700404195274 0.8488790675340163 L 0.1978855195957855 0.8372505989608648 L 0.2191520770159668 0.8343901722540621 L 0.23154046196433117 0.8226515730754423 L 0.2439052329957224 0.8108893599798493 L 0.2562472917518908 0.7991044346090337 L 0.2602472917518908 0.7703330491848278 L 0.27247171721057467 0.7670748918137493 L 0.3014478102003344 0.7719240006765249 L 0.3218179391851377 0.7681671455343441 L 0.333857997156139 0.7560802193783613 L 0.3378672814540026 0.7359625195492406 L 0.34996233394972864 0.7239305879179827 L 0.3620359801442541 0.7118772499855239 L 0.3817616439850388 0.7074759296993245 L 0.3936766711099726 0.6952639726972742 L 0.40556854685161364 0.683028864311931 L 0.4174378303884016 0.6707711637217351 L 0.429285060835839 0.6584914100421883 L 0.43405723925278195 0.6391366043321469 L 0.44599508947868277 0.6269474704310637 L 0.45791533561256736 0.6147407324379643 L 0.4698183854119781 0.6025167981103908 L 0.47520116783034433 0.5837725964017729 L 0.48721552053155287 0.5716599649759972 L 0.4992165107863822 0.5595339711038425 L 0.5172664134371288 0.5534568896276051 L 0.5290892454164826 0.5411527374799747 L 0.5408971259102958 0.5288336338468038 L 0.552690401389402 0.5164999251989256 L 0.5590315627451313 0.49871410242767106 L 0.576234490695562 0.49179004625111766 L 0.5879859661201255 0.479414537548697 L 0.5997241604116808 0.467025747713268 L 0.6066728299880652 0.4498474331626684 L 0.618556133410158 0.4376037524577771 L 0.625996096152095 0.4209167310727299 L 0.6337756026062966 0.4045692533999474 L 0.6459822920616817 0.3926489587283485 L 0.6659889889912132 0.38852867153089576 L 0.6741009985067721 0.37251369691947045 L 0.6861086278889079 0.3603943421746221 L 0.7014651404833061 0.35162387064203626 L 0.7164431722019107 0.3424749182336566 L 0.7310378947483008 0.3329426566530628 L 0.7396575515279676 0.31743532930574536 L 0.7486475121730389 0.3022983058238326 L 0.7604233505321968 0.28994716005600635 L 0.7744086791752977 0.27980550457212316 L 0.7839528805404907 0.26522272181033196 L 0.7938817788977853 0.25102463604064257 L 0.8058270239589858 0.23884289697485886 L 0.8191950674204151 0.228083956309304 L 0.830152953352893 0.21491485811479757 L 0.8415339671162846 0.20216888775120526 L 0.8515954330414784 0.18810336954941492 L 0.8616776792475888 0.17405863162854118 L 0.8717807057346156 0.16003467398858384 L 0.8819045125025589 0.1460314966295431 L 0.8920490995514188 0.13204909955141877 Z"
          fill="black"
          stroke="black"
          stroke-width="0.006"
          stroke-linejoin="round"
          stroke-linecap="round" />
</svg>