<svg xmlns="http://www.w3.org/2000/svg"
     viewBox="0 0 1 1">
    <path d="M 0.15394112549695427 0.9139411254969543 L 0.17492469902813795 0.9107977149011538 L 0.17895467646264251 0.8907007082086743 L 0.19139889290788245 0.87901794052693 L 0.20380746191275317 0.8672995254048167 L 0.2161827981712495 0.8555478775363289 L 0.22032390949309755 0.8355620047311928 L 0.23270299998426644 0.8238141110953776 L 0.24505784685400964 0.8120419738381366 L 0.24939478753609154 0.7922519303932345 L 0.2617816196380012 0.7805117783681599 L 0.28198568861986995 0.7765888632230447 L 0.2942518929700132 0.7647280834462037 L 0.29883750302145046 0.7451867093706568 L 0.31115630864132865 0.7333785308635509 L 0.3234593079064938 0.7215545460017319 L 0.32837596884235787 0.7023442228106119 L 0.348019553245586 0.6978608230868558 L 0.3602775800877782 0.6859918658020638 L 0.3654695992300303 0.6670569008173319 L 0.3847512634822779 0.6622115809425954 L 0.3969676044416281 0.6503009377749616 L 0.4158754959768583 0.6450818451832075 L 0.427944188651848 0.633023553731213 L 0.4464564455084342 0.6274088264608152 L 0.45836761740943766 0.6151930142348345 L 0.47026140190558413 0.602959814603997 L 0.47606829689033675 0.5846397254617653 L 0.48806338094109236 0.5725078253855368 L 0.5000447462135653 0.5603622065310256 L 0.517670544593539 0.5538610207840152 L 0.5239675763440379 0.53603106840753 L 0.5359096524577616 0.5238461603942695 L 0.5478392331700136 0.5116487569795373 L 0.5597566092787887 0.4994391489613283 L 0.5765862156496663 0.4921417712052219 L 0.5835558847355721 0.4749844561641436 L 0.600053838871671 0.4673554261732582 L 0.611767828149624 0.45494243132422724 L 0.6277678054946407 0.4468154245422597 L 0.6351577410130691 0.43007837593370407 L 0.6468342821654982 0.41762793295914896 L 0.6584989509244568 0.40516561759112363 L 0.6701520455073705 0.3926917280470531 L 0.6817938602583961 0.3802065586710944 L 0.6901206596592999 0.3644063739450141 L 0.7050448093114661 0.35520353947019623 L 0.7166545144492152 0.3426862604809612 L 0.7254702686921388 0.32737503059690076 L 0.7372364709039448 0.3150142486817226 L 0.7514239091754834 0.3050747028262771 L 0.7629947152713804 0.29251852479518986 L 0.7745564755504624 0.27995330094728793 L 0.7823354488545979 0.26360529012443923 L 0.792543277025948 0.24968613416880528 L 0.803114841763595 0.23613071477946818 L 0.8153868788139226 0.2242757677028115 L 0.825417127332022 0.21017903209392663 L 0.8369055058801489 0.19754042651506956 L 0.8496448573394495 0.18615279384738587 L 0.8611477820842179 0.17352873446517036 L 0.8714288263110962 0.1596827945650644 L 0.8817292654668297 0.14585624959381394 L 0.8920490995514188 0.13204909955141877 Z"
          fill="black"
          stroke="black"
          stroke-width="0.006"
          stroke-linejoin="round"
          stroke-linecap="round" />
</svg>