<svg xmlns="http://www.w3.org/2000/svg"
     viewBox="0 0 1 1">
    <path d="M 0.1454558441227157 0.9054558441227157 L 0.1580177722626604 0.8938907881356762 L 0.1621257454743804 0.8738717772204122 L 0.18302945982112886 0.8706485074401765 L 0.19548854545497232 0.8589806089470359 L 0.20791951107265283 0.8472845904377322 L 0.22032390949309755 0.8355620047311928 L 0.23270299998426644 0.8238141110953776 L 0.24505784685400964 0.8120419738381366 L 0.25738937578785737 0.8002465186450003 L 0.2617816196380012 0.7805117783681599 L 0.2663156180633836 0.7609187926665583 L 0.27875299432009054 0.7492291847962811 L 0.29883750302145046 0.7451867093706568 L 0.31115630864132865 0.7333785308635509 L 0.3234593079064938 0.7215545460017319 L 0.3431178767205623 0.7170861306888163 L 0.3552873301560065 0.7051285999972763 L 0.3674389347201984 0.6931532204344841 L 0.37957313517000146 0.6811604367573031 L 0.3986294523951684 0.6760897698554857 L 0.4106144217394771 0.6639477550728106 L 0.429285060835839 0.6584914100421883 L 0.44111075917693643 0.6461901242563014 L 0.4464564455084342 0.6274088264608152 L 0.45836761740943766 0.6151930142348345 L 0.4764636328160685 0.6091620455144813 L 0.4882081037302305 0.596779532301659 L 0.499933426674645 0.5843778711190893 L 0.5058423942038469 0.5661598545213072 L 0.517670544593539 0.5538610207840152 L 0.5294832199605168 0.541546712024009 L 0.5412807777143369 0.5292172856508448 L 0.5478392331700136 0.5116487569795373 L 0.5546812835431878 0.4943638232257274 L 0.5618137675772867 0.47736932313284236 L 0.5740141709842262 0.46544274241279765 L 0.5815918451122208 0.4488934324138081 L 0.593935334584168 0.4371099377587712 L 0.6105726842702731 0.42962030331789214 L 0.6227451899111042 0.4176658248317391 L 0.642859901430089 0.4136535522237398 L 0.6546895330096991 0.40135619967636593 L 0.6665093710557328 0.3890490535954154 L 0.6783196646286304 0.37673236304132873 L 0.6901206596592999 0.3644063739450141 L 0.7019125990868261 0.3520713292455563 L 0.7107369315246874 0.33676867755643336 L 0.7199026426359768 0.3218074045407388 L 0.7268072005235391 0.3045849783013168 L 0.7417065196669277 0.2953573133177214 L 0.7517449945374524 0.28126880406126187 L 0.7642107292889279 0.2696075546857533 L 0.7766744379539734 0.25794427922381463 L 0.7891361813521803 0.24627903849503757 L 0.8000771977047575 0.23309307072063057 L 0.8127211467893779 0.22161003567826673 L 0.8266681002431955 0.2114300050051001 L 0.8369055058801489 0.19754042651506956 L 0.8496448573394495 0.18615279384738587 L 0.8611477820842179 0.17352873446517036 L 0.8714288263110962 0.1596827945650644 L 0.8817292654668297 0.14585624959381394 L 0.8920490995514188 0.13204909955141877 Z"
          fill="black"
          stroke="black"
          stroke-width="0.006"
          stroke-linejoin="round"
          stroke-linecap="round" />
</svg>