<svg xmlns="http://www.w3.org/2000/svg"
     viewBox="0 0 1 1">
    <path d="M 0.15333503397022297 0.913335033970223 L 0.1658674168323464 0.9017404327053622 L 0.17835364321306174 0.8900996749590935 L 0.19080107625882864 0.8784201238778763 L 0.212126378370534 0.8756184418625975 L 0.216126378370534 0.854957642743572 L 0.22794082059444723 0.8431789158325426 L 0.24025949711384575 0.8313706082249569 L 0.2525498369328765 0.8195339639170035 L 0.26481292202163986 0.8076700648787828 L 0.26881292202163987 0.7872975978237146 L 0.27281292202163987 0.7670748918137493 L 0.293144828780733 0.7636210192569235 L 0.3136106405552494 0.7599598469044557 L 0.333857997156139 0.7560802193783613 L 0.3458717112026186 0.7439669492978567 L 0.3578597845987667 0.7318280385670208 L 0.3698228839768475 0.7196641538181173 L 0.37408876402173147 0.6998030497360171 L 0.3785657397457178 0.6801530413330195 L 0.3906990587306595 0.668159376190977 L 0.4101270354074111 0.6634603687407445 L 0.4221013653756708 0.65130771458202 L 0.43405723925278195 0.6391366043321469 L 0.45291542992495515 0.6338678108773361 L 0.46469956256562156 0.6215249593910185 L 0.4764636328160685 0.6091620455144813 L 0.4882081037302305 0.596779532301659 L 0.499933426674645 0.5843778711190893 L 0.5116400421941286 0.5719575025115889 L 0.5233283807832819 0.5595188569737582 L 0.5290892454164826 0.5411527374799747 L 0.5466519029709123 0.5345884109074203 L 0.5582879031810039 0.5220974269905275 L 0.5699072607499904 0.5095898004325301 L 0.5815103650071262 0.49706592056268173 L 0.5879859661201255 0.479414537548697 L 0.6046693373115335 0.47197092461312073 L 0.616225951540988 0.45940055471559127 L 0.6277678054946407 0.4468154245422597 L 0.6392952580470574 0.43421589296769236 L 0.6508086629009073 0.42160231369455814 L 0.6582268496448312 0.40489351631149806 L 0.6659889889912132 0.38852867153089576 L 0.6815457034276985 0.37995840184039686 L 0.6931886839543056 0.36747439824001965 L 0.7014651404833061 0.35162387064203626 L 0.7164431722019107 0.3424749182336566 L 0.7280552379324998 0.3299599998372617 L 0.7368639969617875 0.3146417747395652 L 0.7486475121730389 0.3022983058238326 L 0.7556020416462277 0.2851258511700372 L 0.7677578422928826 0.27315466768970803 L 0.7799093013257589 0.26117914259560016 L 0.7884060894220872 0.2455489465649445 L 0.7976904773728136 0.23070635038868675 L 0.8120547137832417 0.22094360267213053 L 0.8247916408764353 0.2095535456383399 L 0.8361934349207434 0.19682835555566408 L 0.8462756811268538 0.18278361763479023 L 0.8563787076138806 0.168759659994833 L 0.8717807057346156 0.16003467398858384 L 0.8819045125025589 0.1460314966295431 L 0.8920490995514188 0.13204909955141877 Z"
          fill="black"
          stroke="black"
          stroke-width="0.006"
          stroke-linejoin="round"
          stroke-linecap="round" />
</svg>