<svg xmlns="http://www.w3.org/2000/svg"
     viewBox="0 0 1 1">
    <path d="M 0.15394112549695427 0.9139411254969543 L 0.16647123564539917 0.902344251518415 L 0.17054021096851146 0.8822862427145433 L 0.18302945982112886 0.8706485074401765 L 0.1871696289971915 0.850661692489255 L 0.20791951107265283 0.8472845904377322 L 0.22032390949309755 0.8355620047311928 L 0.2408407661238134 0.8319518772349246 L 0.25312614386202015 0.8201102708461471 L 0.26538396403962317 0.8082411068967661 L 0.28553198773244265 0.8042621464626014 L 0.29765575917635634 0.7922589337795309 L 0.3097507916199358 0.7802269820961263 L 0.3218179391851377 0.7681671455343441 L 0.333857997156139 0.7560802193783613 L 0.3384009101039103 0.7364961481991483 L 0.3431178767205623 0.7170861306888163 L 0.3552873301560065 0.7051285999972763 L 0.3674389347201984 0.6931532204344841 L 0.37957313517000146 0.6811604367573031 L 0.3986294523951684 0.6760897698554857 L 0.4106144217394771 0.6639477550728106 L 0.42258027840634865 0.6517866276126979 L 0.4345274739143922 0.6396068389937573 L 0.43999746109191334 0.6209498420442944 L 0.44570372709706974 0.6025291239224667 L 0.46405917099509975 0.5967575836935125 L 0.48213820031028365 0.5907096288817122 L 0.48806338094109236 0.5725078253855368 L 0.5058423942038469 0.5661598545213072 L 0.517670544593539 0.5538610207840152 L 0.5239675763440379 0.53603106840753 L 0.5412807777143369 0.5292172856508448 L 0.5530635681755087 0.5168730919850324 L 0.5648319350143896 0.5045144746969292 L 0.5765862156496663 0.4921417712052219 L 0.5883267416112451 0.4797553130398165 L 0.5954383404318084 0.4627399277333957 L 0.602851581366896 0.4460261845414992 L 0.6234690251885487 0.4425166442361678 L 0.6351577410130691 0.43007837593370407 L 0.6468342821654982 0.41762793295914896 L 0.6584989509244568 0.40516561759112363 L 0.6701520455073705 0.3926917280470531 L 0.6748454689988647 0.3732581674115631 L 0.6901206596592999 0.3644063739450141 L 0.6987803888621862 0.3489391190209163 L 0.7077781400624236 0.3338098860941695 L 0.7226864556640579 0.3245912175688198 L 0.7346291533088435 0.31240693108662115 L 0.7489945617983444 0.3026453554491382 L 0.7607447711245948 0.2902685806484043 L 0.7704181770458486 0.2758150024426741 L 0.7823354488545979 0.26360529012443923 L 0.7942468248628318 0.2513896820056891 L 0.803114841763595 0.23613071477946818 L 0.8180526108384674 0.22694149972735625 L 0.8291700460655423 0.213931950827447 L 0.8393977542380682 0.20003267487298879 L 0.8496448573394495 0.18615279384738587 L 0.8611477820842179 0.17352873446517036 L 0.8714288263110962 0.1596827945650644 L 0.8817292654668297 0.14585624959381394 L 0.8920490995514188 0.13204909955141877 Z"
          fill="black"
          stroke="black"
          stroke-width="0.006"
          stroke-linejoin="round"
          stroke-linecap="round" />
</svg>