<svg xmlns="http://www.w3.org/2000/svg"
     viewBox="0 0 1 1">
    <path d="M 0.15333503397022297 0.913335033970223 L 0.15733503397022297 0.8926831505095707 L 0.17835364321306174 0.8900996749590935 L 0.199768325994636 0.8873873736136836 L 0.212126378370534 0.8756184418625975 L 0.22444608526984614 0.8638111646349255 L 0.22844608526984614 0.8431789158325426 L 0.24025949711384575 0.8313706082249569 L 0.2525498369328765 0.8195339639170035 L 0.27337855229138897 0.8162356951485319 L 0.27737855229138897 0.7957798721431579 L 0.29765575917635634 0.7922589337795309 L 0.3097507916199358 0.7802269820961263 L 0.3218179391851377 0.7681671455343441 L 0.333857997156139 0.7560802193783613 L 0.3458717112026186 0.7439669492978567 L 0.3578597845987667 0.7318280385670208 L 0.3698228839768475 0.7196641538181173 L 0.3817616439850388 0.7074759296993245 L 0.3936766711099726 0.6952639726972742 L 0.40556854685161364 0.683028864311931 L 0.4174378303884016 0.6707711637217351 L 0.429285060835839 0.6584914100421883 L 0.44111075917693643 0.6461901242563014 L 0.45291542992495515 0.6338678108773361 L 0.46469956256562156 0.6215249593910185 L 0.4698183854119781 0.6025167981103908 L 0.48170463578028744 0.590276064351716 L 0.499933426674645 0.5843778711190893 L 0.5116400421941286 0.5719575025115889 L 0.5233283807832819 0.5595188569737582 L 0.5290892454164826 0.5411527374799747 L 0.5408971259102958 0.5288336338468038 L 0.552690401389402 0.5164999251989256 L 0.5644694117475608 0.5041519514301005 L 0.576234490695562 0.49179004625111766 L 0.5879859661201255 0.479414537548697 L 0.5997241604116808 0.467025747713268 L 0.6066728299880652 0.4498474331626684 L 0.6139502973679167 0.43299791641553576 L 0.6304291501170824 0.4253497850377174 L 0.6465503978272547 0.41734404862090546 L 0.6582268496448312 0.40489351631149806 L 0.6737947199590082 0.3963344024986908 L 0.6852680558881616 0.38368075430086007 L 0.6967287119870043 0.3710144262727184 L 0.708177019536106 0.35833574969483617 L 0.7196133059114792 0.3456450519432251 L 0.7310378947483008 0.3329426566530628 L 0.7424511060941478 0.3202288838719255 L 0.7538532565526223 0.30750405020341604 L 0.765244659418166 0.2947684689419755 L 0.7744086791752977 0.27980550457212316 L 0.7859746701478566 0.2672445114176979 L 0.7975322385482507 0.25467509569110797 L 0.8074543332762202 0.24047020629209329 L 0.8163389259655458 0.2252278148544346 L 0.8274722971146641 0.21223420187656875 L 0.838863701018514 0.19949862165343468 L 0.8502654950628223 0.18677343157075874 L 0.8616776792475888 0.17405863162854118 L 0.8717807057346156 0.16003467398858384 L 0.8819045125025589 0.1460314966295431 L 0.8920490995514188 0.13204909955141877 Z"
          fill="black"
          stroke="black"
          stroke-width="0.006"
          stroke-linejoin="round"
          stroke-linecap="round" />
</svg>