<svg xmlns="http://www.w3.org/2000/svg" viewBox="0 0 1000 1000" width="1000" height="1000">
  <path d="M 205.391 170.456 Q 201.819 170.456 199.539 169.145 Q 197.259 167.834 195.777 165.782 L 198.095 163.882 Q 199.653 165.82 201.382 166.77 Q 203.111 167.72 205.505 167.72 Q 208.393 167.72 209.913 166.39 Q 211.433 165.06 211.433 162.666 Q 211.433 160.728 210.331 159.645 Q 209.229 158.562 206.493 158.106 L 203.529 157.612 Q 201.591 157.27 200.28 156.586 Q 198.969 155.902 198.171 154.933 Q 197.373 153.964 197.031 152.805 Q 196.689 151.646 196.689 150.392 Q 196.689 146.744 199.083 144.882 Q 201.477 143.02 205.543 143.02 Q 208.735 143.02 210.92 144.084 Q 213.105 145.148 214.435 147.086 L 212.193 149.024 Q 211.091 147.58 209.533 146.668 Q 207.975 145.756 205.505 145.756 Q 202.807 145.756 201.363 146.896 Q 199.919 148.036 199.919 150.316 Q 199.919 152.102 201.002 153.223 Q 202.085 154.344 204.897 154.838 L 207.747 155.332 Q 209.685 155.674 211.015 156.358 Q 212.345 157.042 213.162 157.992 Q 213.979 158.942 214.321 160.12 Q 214.663 161.298 214.663 162.59 Q 214.663 166.276 212.25 168.366 Q 209.837 170.456 205.391 170.456 Z M 231.067 170.456 Q 228.635 170.456 226.887 169.525 Q 225.139 168.594 223.999 166.846 Q 222.859 165.098 222.327 162.552 Q 221.795 160.006 221.795 156.738 Q 221.795 153.508 222.327 150.943 Q 222.859 148.378 223.999 146.63 Q 225.139 144.882 226.887 143.951 Q 228.635 143.02 231.067 143.02 Q 233.499 143.02 235.247 143.951 Q 236.995 144.882 238.135 146.63 Q 239.275 148.378 239.807 150.943 Q 240.339 153.508 240.339 156.738 Q 240.339 160.006 239.807 162.552 Q 239.275 165.098 238.135 166.846 Q 236.995 168.594 235.247 169.525 Q 233.499 170.456 231.067 170.456 Z M 231.067 167.682 Q 232.663 167.682 233.765 167.055 Q 234.867 166.428 235.589 165.288 Q 236.311 164.148 236.634 162.533 Q 236.957 160.918 236.957 158.904 L 236.957 154.572 Q 236.957 152.596 236.634 150.962 Q 236.311 149.328 235.589 148.188 Q 234.867 147.048 233.765 146.421 Q 232.663 145.794 231.067 145.794 Q 229.471 145.794 228.369 146.421 Q 227.267 147.048 226.545 148.188 Q 225.823 149.328 225.5 150.962 Q 225.177 152.596 225.177 154.572 L 225.177 158.904 Q 225.177 160.918 225.5 162.533 Q 225.823 164.148 226.545 165.288 Q 227.267 166.428 228.369 167.055 Q 229.471 167.682 231.067 167.682 Z M 254.501 170 L 246.635 143.476 L 250.017 143.476 L 253.779 156.738 L 256.629 166.77 L 256.819 166.77 L 259.669 156.738 L 263.431 143.476 L 266.699 143.476 L 258.833 170 Z M 274.287 170 L 274.287 143.476 L 290.627 143.476 L 290.627 146.25 L 277.479 146.25 L 277.479 155.18 L 290.171 155.18 L 290.171 157.954 L 277.479 157.954 L 277.479 167.226 L 290.627 167.226 L 290.627 170 Z M 303.079 170 L 299.887 170 L 299.887 143.476 L 309.539 143.476 Q 313.225 143.476 315.163 145.49 Q 317.101 147.504 317.101 151.114 Q 317.101 154.344 315.429 156.282 Q 313.757 158.22 310.565 158.524 L 317.329 170 L 313.757 170 L 307.297 158.676 L 303.079 158.676 Z M 309.463 155.978 Q 311.477 155.978 312.598 154.971 Q 313.719 153.964 313.719 152.102 L 313.719 150.126 Q 313.719 148.264 312.598 147.257 Q 311.477 146.25 309.463 146.25 L 303.079 146.25 L 303.079 155.978 Z M 325.487 170 L 325.487 143.476 L 341.827 143.476 L 341.827 146.25 L 328.679 146.25 L 328.679 155.18 L 341.371 155.18 L 341.371 157.954 L 328.679 157.954 L 328.679 167.226 L 341.827 167.226 L 341.827 170 Z M 350.859 170 L 350.859 167.454 L 357.471 167.454 L 357.471 146.022 L 350.859 146.022 L 350.859 143.476 L 367.275 143.476 L 367.275 146.022 L 360.663 146.022 L 360.663 167.454 L 367.275 167.454 L 367.275 170 Z M 390.139 166.466 L 389.949 166.466 Q 389.607 167.226 389.151 167.948 Q 388.695 168.67 387.992 169.221 Q 387.289 169.772 386.301 170.114 Q 385.313 170.456 383.945 170.456 Q 379.613 170.456 377.504 166.96 Q 375.395 163.464 375.395 156.928 Q 375.395 150.088 377.713 146.554 Q 380.031 143.02 384.857 143.02 Q 386.719 143.02 388.087 143.514 Q 389.455 144.008 390.424 144.844 Q 391.393 145.68 392.039 146.725 Q 392.685 147.77 393.103 148.834 L 390.367 150.088 Q 390.025 149.214 389.588 148.435 Q 389.151 147.656 388.524 147.067 Q 387.897 146.478 387.023 146.136 Q 386.149 145.794 384.971 145.794 Q 381.779 145.794 380.278 148.188 Q 378.777 150.582 378.777 154.572 L 378.777 158.676 Q 378.777 160.69 379.081 162.343 Q 379.385 163.996 380.088 165.212 Q 380.791 166.428 381.912 167.093 Q 383.033 167.758 384.667 167.758 Q 387.251 167.758 388.695 166.2 Q 390.139 164.642 390.139 162.172 L 390.139 159.436 L 384.553 159.436 L 384.553 156.89 L 393.103 156.89 L 393.103 170 L 390.139 170 Z M 405.061 147.656 L 404.795 147.656 L 404.795 170 L 401.907 170 L 401.907 143.476 L 406.429 143.476 L 415.473 165.82 L 415.739 165.82 L 415.739 143.476 L 418.627 143.476 L 418.627 170 L 414.105 170 Z M 461.391 170.456 Q 457.819 170.456 455.539 169.145 Q 453.259 167.834 451.777 165.782 L 454.095 163.882 Q 455.653 165.82 457.382 166.77 Q 459.111 167.72 461.505 167.72 Q 464.393 167.72 465.913 166.39 Q 467.433 165.06 467.433 162.666 Q 467.433 160.728 466.331 159.645 Q 465.229 158.562 462.493 158.106 L 459.529 157.612 Q 457.591 157.27 456.28 156.586 Q 454.969 155.902 454.171 154.933 Q 453.373 153.964 453.031 152.805 Q 452.689 151.646 452.689 150.392 Q 452.689 146.744 455.083 144.882 Q 457.477 143.02 461.543 143.02 Q 464.735 143.02 466.92 144.084 Q 469.105 145.148 470.435 147.086 L 468.193 149.024 Q 467.091 147.58 465.533 146.668 Q 463.975 145.756 461.505 145.756 Q 458.807 145.756 457.363 146.896 Q 455.919 148.036 455.919 150.316 Q 455.919 152.102 457.002 153.223 Q 458.085 154.344 460.897 154.838 L 463.747 155.332 Q 465.685 155.674 467.015 156.358 Q 468.345 157.042 469.162 157.992 Q 469.979 158.942 470.321 160.12 Q 470.663 161.298 470.663 162.59 Q 470.663 166.276 468.25 168.366 Q 465.837 170.456 461.391 170.456 Z M 488.663 146.25 L 488.663 170 L 485.471 170 L 485.471 146.25 L 476.617 146.25 L 476.617 143.476 L 497.517 143.476 L 497.517 146.25 Z M 519.545 170 L 517.303 162.438 L 507.993 162.438 L 505.751 170 L 502.445 170 L 510.577 143.476 L 514.795 143.476 L 522.927 170 Z M 512.819 146.858 L 512.477 146.858 L 508.753 159.664 L 516.543 159.664 Z M 533.061 147.656 L 532.795 147.656 L 532.795 170 L 529.907 170 L 529.907 143.476 L 534.429 143.476 L 543.473 165.82 L 543.739 165.82 L 543.739 143.476 L 546.627 143.476 L 546.627 170 L 542.105 170 Z M 556.077 143.476 L 563.487 143.476 Q 568.351 143.476 570.745 146.82 Q 573.139 150.164 573.139 156.738 Q 573.139 163.312 570.745 166.656 Q 568.351 170 563.487 170 L 556.077 170 Z M 563.335 167.226 Q 566.527 167.226 568.142 165.022 Q 569.757 162.818 569.757 158.79 L 569.757 154.686 Q 569.757 150.658 568.142 148.454 Q 566.527 146.25 563.335 146.25 L 559.269 146.25 L 559.269 167.226 Z M 596.345 170 L 594.103 162.438 L 584.793 162.438 L 582.551 170 L 579.245 170 L 587.377 143.476 L 591.595 143.476 L 599.727 170 Z M 589.619 146.858 L 589.277 146.858 L 585.553 159.664 L 593.343 159.664 Z M 610.279 170 L 607.087 170 L 607.087 143.476 L 616.739 143.476 Q 620.425 143.476 622.363 145.49 Q 624.301 147.504 624.301 151.114 Q 624.301 154.344 622.629 156.282 Q 620.957 158.22 617.765 158.524 L 624.529 170 L 620.957 170 L 614.497 158.676 L 610.279 158.676 Z M 616.663 155.978 Q 618.677 155.978 619.798 154.971 Q 620.919 153.964 620.919 152.102 L 620.919 150.126 Q 620.919 148.264 619.798 147.257 Q 618.677 146.25 616.663 146.25 L 610.279 146.25 L 610.279 155.978 Z M 632.877 143.476 L 640.287 143.476 Q 645.151 143.476 647.545 146.82 Q 649.939 150.164 649.939 156.738 Q 649.939 163.312 647.545 166.656 Q 645.151 170 640.287 170 L 632.877 170 Z M 640.135 167.226 Q 643.327 167.226 644.942 165.022 Q 646.557 162.818 646.557 158.79 L 646.557 154.686 Q 646.557 150.658 644.942 148.454 Q 643.327 146.25 640.135 146.25 L 636.069 146.25 L 636.069 167.226 Z M 686.357 160.044 L 686.357 156.852 L 697.377 156.852 L 697.377 160.044 Z M 734.897 170 L 734.897 167.226 L 742.497 167.226 L 742.497 145.832 L 742.231 145.832 L 735.543 152.064 L 733.681 150.05 L 740.711 143.476 L 745.689 143.476 L 745.689 167.226 L 752.681 167.226 L 752.681 170 Z M 760.497 170 L 760.497 167.226 L 768.097 167.226 L 768.097 145.832 L 767.831 145.832 L 761.143 152.064 L 759.281 150.05 L 766.311 143.476 L 771.289 143.476 L 771.289 167.226 L 778.281 167.226 L 778.281 170 Z M 797.231 170 L 797.231 164.794 L 784.159 164.794 L 784.159 161.982 L 795.635 143.476 L 800.271 143.476 L 800.271 162.172 L 804.223 162.172 L 804.223 164.794 L 800.271 164.794 L 800.271 170 Z M 787.009 162.172 L 797.231 162.172 L 797.231 145.946 L 797.079 145.946 Z" fill="black"/>
  <path d="M 360.722 288.094 L 360.512 288.094 Q 360.134 288.934 359.63 289.732 Q 359.126 290.53 358.349 291.139 Q 357.572 291.748 356.48 292.126 Q 355.388 292.504 353.876 292.504 Q 349.088 292.504 346.757 288.64 Q 344.426 284.776 344.426 277.552 Q 344.426 269.992 346.988 266.086 Q 349.55 262.18 354.884 262.18 Q 356.942 262.18 358.454 262.726 Q 359.966 263.272 361.037 264.196 Q 362.108 265.12 362.822 266.275 Q 363.536 267.43 363.998 268.606 L 360.974 269.992 Q 360.596 269.026 360.113 268.165 Q 359.63 267.304 358.937 266.653 Q 358.244 266.002 357.278 265.624 Q 356.312 265.246 355.01 265.246 Q 351.482 265.246 349.823 267.892 Q 348.164 270.538 348.164 274.948 L 348.164 279.484 Q 348.164 281.71 348.5 283.537 Q 348.836 285.364 349.613 286.708 Q 350.39 288.052 351.629 288.787 Q 352.868 289.522 354.674 289.522 Q 357.53 289.522 359.126 287.8 Q 360.722 286.078 360.722 283.348 L 360.722 280.324 L 354.548 280.324 L 354.548 277.51 L 363.998 277.51 L 363.998 292 L 360.722 292 Z M 371.708 289.144 L 378.05 289.144 L 378.05 273.184 L 371.708 273.184 L 371.708 270.328 L 381.41 270.328 L 381.41 275.788 L 381.62 275.788 Q 382.292 273.226 384.161 271.777 Q 386.03 270.328 388.928 270.328 L 391.952 270.328 L 391.952 273.688 L 387.878 273.688 Q 384.98 273.688 383.195 275.368 Q 381.41 277.048 381.41 279.778 L 381.41 289.144 L 389.81 289.144 L 389.81 292 L 371.708 292 Z M 407.852 292.504 Q 405.5 292.504 403.631 291.706 Q 401.762 290.908 400.439 289.417 Q 399.116 287.926 398.402 285.847 Q 397.688 283.768 397.688 281.206 Q 397.688 278.602 398.423 276.502 Q 399.158 274.402 400.46 272.911 Q 401.762 271.42 403.589 270.622 Q 405.416 269.824 407.642 269.824 Q 409.826 269.824 411.611 270.622 Q 413.396 271.42 414.656 272.827 Q 415.916 274.234 416.588 276.166 Q 417.26 278.098 417.26 280.408 L 417.26 282.004 L 401.216 282.004 L 401.216 283.012 Q 401.216 284.44 401.678 285.658 Q 402.14 286.876 403.001 287.758 Q 403.862 288.64 405.101 289.123 Q 406.34 289.606 407.852 289.606 Q 410.036 289.606 411.632 288.598 Q 413.228 287.59 414.068 285.826 L 416.546 287.506 Q 415.58 289.69 413.333 291.097 Q 411.086 292.504 407.852 292.504 Z M 407.642 272.596 Q 406.256 272.596 405.08 273.1 Q 403.904 273.604 403.043 274.486 Q 402.182 275.368 401.699 276.565 Q 401.216 277.762 401.216 279.19 L 401.216 279.484 L 413.648 279.484 L 413.648 279.022 Q 413.648 277.594 413.207 276.418 Q 412.766 275.242 411.989 274.381 Q 411.212 273.52 410.099 273.058 Q 408.986 272.596 407.642 272.596 Z M 434.252 292.504 Q 431.9 292.504 430.031 291.706 Q 428.162 290.908 426.839 289.417 Q 425.516 287.926 424.802 285.847 Q 424.088 283.768 424.088 281.206 Q 424.088 278.602 424.823 276.502 Q 425.558 274.402 426.86 272.911 Q 428.162 271.42 429.989 270.622 Q 431.816 269.824 434.042 269.824 Q 436.226 269.824 438.011 270.622 Q 439.796 271.42 441.056 272.827 Q 442.316 274.234 442.988 276.166 Q 443.66 278.098 443.66 280.408 L 443.66 282.004 L 427.616 282.004 L 427.616 283.012 Q 427.616 284.44 428.078 285.658 Q 428.54 286.876 429.401 287.758 Q 430.262 288.64 431.501 289.123 Q 432.74 289.606 434.252 289.606 Q 436.436 289.606 438.032 288.598 Q 439.628 287.59 440.468 285.826 L 442.946 287.506 Q 441.98 289.69 439.733 291.097 Q 437.486 292.504 434.252 292.504 Z M 434.042 272.596 Q 432.656 272.596 431.48 273.1 Q 430.304 273.604 429.443 274.486 Q 428.582 275.368 428.099 276.565 Q 427.616 277.762 427.616 279.19 L 427.616 279.484 L 440.048 279.484 L 440.048 279.022 Q 440.048 277.594 439.607 276.418 Q 439.166 275.242 438.389 274.381 Q 437.612 273.52 436.499 273.058 Q 435.386 272.596 434.042 272.596 Z M 451.79 292 L 451.79 270.328 L 455.15 270.328 L 455.15 273.856 L 455.318 273.856 Q 455.654 273.058 456.158 272.323 Q 456.662 271.588 457.397 271.042 Q 458.132 270.496 459.14 270.16 Q 460.148 269.824 461.492 269.824 Q 464.894 269.824 466.952 271.987 Q 469.01 274.15 469.01 278.098 L 469.01 292 L 465.65 292 L 465.65 278.686 Q 465.65 275.704 464.348 274.255 Q 463.046 272.806 460.526 272.806 Q 459.518 272.806 458.552 273.058 Q 457.586 273.31 456.83 273.814 Q 456.074 274.318 455.612 275.116 Q 455.15 275.914 455.15 276.964 L 455.15 292 Z M 512.99 292.504 Q 509.042 292.504 506.522 291.055 Q 504.002 289.606 502.364 287.338 L 504.926 285.238 Q 506.648 287.38 508.559 288.43 Q 510.47 289.48 513.116 289.48 Q 516.308 289.48 517.988 288.01 Q 519.668 286.54 519.668 283.894 Q 519.668 281.752 518.45 280.555 Q 517.232 279.358 514.208 278.854 L 510.932 278.308 Q 508.79 277.93 507.341 277.174 Q 505.892 276.418 505.01 275.347 Q 504.128 274.276 503.75 272.995 Q 503.372 271.714 503.372 270.328 Q 503.372 266.296 506.018 264.238 Q 508.664 262.18 513.158 262.18 Q 516.686 262.18 519.101 263.356 Q 521.516 264.532 522.986 266.674 L 520.508 268.816 Q 519.29 267.22 517.568 266.212 Q 515.846 265.204 513.116 265.204 Q 510.134 265.204 508.538 266.464 Q 506.942 267.724 506.942 270.244 Q 506.942 272.218 508.139 273.457 Q 509.336 274.696 512.444 275.242 L 515.594 275.788 Q 517.736 276.166 519.206 276.922 Q 520.676 277.678 521.579 278.728 Q 522.482 279.778 522.86 281.08 Q 523.238 282.382 523.238 283.81 Q 523.238 287.884 520.571 290.194 Q 517.904 292.504 512.99 292.504 Z M 539.852 292.504 Q 537.5 292.504 535.631 291.706 Q 533.762 290.908 532.439 289.417 Q 531.116 287.926 530.402 285.847 Q 529.688 283.768 529.688 281.206 Q 529.688 278.602 530.423 276.502 Q 531.158 274.402 532.46 272.911 Q 533.762 271.42 535.589 270.622 Q 537.416 269.824 539.642 269.824 Q 541.826 269.824 543.611 270.622 Q 545.396 271.42 546.656 272.827 Q 547.916 274.234 548.588 276.166 Q 549.26 278.098 549.26 280.408 L 549.26 282.004 L 533.216 282.004 L 533.216 283.012 Q 533.216 284.44 533.678 285.658 Q 534.14 286.876 535.001 287.758 Q 535.862 288.64 537.101 289.123 Q 538.34 289.606 539.852 289.606 Q 542.036 289.606 543.632 288.598 Q 545.228 287.59 546.068 285.826 L 548.546 287.506 Q 547.58 289.69 545.333 291.097 Q 543.086 292.504 539.852 292.504 Z M 539.642 272.596 Q 538.256 272.596 537.08 273.1 Q 535.904 273.604 535.043 274.486 Q 534.182 275.368 533.699 276.565 Q 533.216 277.762 533.216 279.19 L 533.216 279.484 L 545.648 279.484 L 545.648 279.022 Q 545.648 277.594 545.207 276.418 Q 544.766 275.242 543.989 274.381 Q 543.212 273.52 542.099 273.058 Q 540.986 272.596 539.642 272.596 Z M 557.39 292 L 557.39 270.328 L 560.75 270.328 L 560.75 273.856 L 560.918 273.856 Q 561.254 273.058 561.758 272.323 Q 562.262 271.588 562.997 271.042 Q 563.732 270.496 564.74 270.16 Q 565.748 269.824 567.092 269.824 Q 570.494 269.824 572.552 271.987 Q 574.61 274.15 574.61 278.098 L 574.61 292 L 571.25 292 L 571.25 278.686 Q 571.25 275.704 569.948 274.255 Q 568.646 272.806 566.126 272.806 Q 565.118 272.806 564.152 273.058 Q 563.186 273.31 562.43 273.814 Q 561.674 274.318 561.212 275.116 Q 560.75 275.914 560.75 276.964 L 560.75 292 Z M 593.03 292.504 Q 590.678 292.504 588.851 291.685 Q 587.024 290.866 585.764 289.396 Q 584.504 287.926 583.853 285.826 Q 583.202 283.726 583.202 281.164 Q 583.202 278.602 583.874 276.502 Q 584.546 274.402 585.806 272.911 Q 587.066 271.42 588.872 270.622 Q 590.678 269.824 592.988 269.824 Q 596.138 269.824 598.112 271.21 Q 600.086 272.596 601.01 274.822 L 598.322 276.25 Q 597.734 274.57 596.369 273.646 Q 595.004 272.722 592.988 272.722 Q 591.518 272.722 590.363 273.205 Q 589.208 273.688 588.41 274.57 Q 587.612 275.452 587.213 276.67 Q 586.814 277.888 586.814 279.316 L 586.814 283.012 Q 586.814 284.44 587.213 285.658 Q 587.612 286.876 588.41 287.758 Q 589.208 288.64 590.384 289.123 Q 591.56 289.606 593.072 289.606 Q 595.256 289.606 596.684 288.598 Q 598.112 287.59 598.952 285.826 L 601.346 287.464 Q 600.38 289.648 598.343 291.076 Q 596.306 292.504 593.03 292.504 Z M 610.19 260.92 L 613.55 260.92 L 613.55 273.856 L 613.718 273.856 Q 614.054 273.058 614.558 272.323 Q 615.062 271.588 615.797 271.042 Q 616.532 270.496 617.54 270.16 Q 618.548 269.824 619.892 269.824 Q 623.294 269.824 625.352 271.987 Q 627.41 274.15 627.41 278.098 L 627.41 292 L 624.05 292 L 624.05 278.686 Q 624.05 275.704 622.748 274.255 Q 621.446 272.806 618.926 272.806 Q 617.918 272.806 616.952 273.058 Q 615.986 273.31 615.23 273.814 Q 614.474 274.318 614.012 275.116 Q 613.55 275.914 613.55 276.964 L 613.55 292 L 610.19 292 Z M 653.264 292 Q 651.29 292 650.45 290.992 Q 649.61 289.984 649.4 288.472 L 649.19 288.472 Q 648.476 290.362 646.901 291.433 Q 645.326 292.504 642.68 292.504 Q 639.278 292.504 637.262 290.74 Q 635.246 288.976 635.246 285.91 Q 635.246 282.886 637.451 281.248 Q 639.656 279.61 644.57 279.61 L 649.19 279.61 L 649.19 277.468 Q 649.19 275.074 647.846 273.877 Q 646.502 272.68 644.024 272.68 Q 641.84 272.68 640.454 273.541 Q 639.068 274.402 638.228 275.872 L 635.96 274.192 Q 636.38 273.352 637.094 272.554 Q 637.808 271.756 638.858 271.147 Q 639.908 270.538 641.252 270.181 Q 642.596 269.824 644.234 269.824 Q 648.056 269.824 650.303 271.756 Q 652.55 273.688 652.55 277.132 L 652.55 289.06 L 655.574 289.06 L 655.574 292 Z M 643.268 289.69 Q 644.57 289.69 645.641 289.375 Q 646.712 289.06 647.51 288.535 Q 648.308 288.01 648.749 287.275 Q 649.19 286.54 649.19 285.7 L 649.19 282.13 L 644.57 282.13 Q 641.546 282.13 640.16 282.97 Q 638.774 283.81 638.774 285.406 L 638.774 286.288 Q 638.774 287.968 639.971 288.829 Q 641.168 289.69 643.268 289.69 Z" fill="black"/>
  <path d="M 352.847 345.636 L 348.647 350.592 L 348.647 360 L 345.119 360 L 345.119 330.684 L 348.647 330.684 L 348.647 345.972 L 348.773 345.972 L 352.637 341.1 L 361.289 330.684 L 365.531 330.684 L 355.241 343.032 L 365.825 360 L 361.709 360 Z M 388.739 360 Q 386.765 360 385.925 358.992 Q 385.085 357.984 384.875 356.472 L 384.665 356.472 Q 383.951 358.362 382.376 359.433 Q 380.801 360.504 378.155 360.504 Q 374.753 360.504 372.737 358.74 Q 370.721 356.976 370.721 353.91 Q 370.721 350.886 372.926 349.248 Q 375.131 347.61 380.045 347.61 L 384.665 347.61 L 384.665 345.468 Q 384.665 343.074 383.321 341.877 Q 381.977 340.68 379.499 340.68 Q 377.315 340.68 375.929 341.541 Q 374.543 342.402 373.703 343.872 L 371.435 342.192 Q 371.855 341.352 372.569 340.554 Q 373.283 339.756 374.333 339.147 Q 375.383 338.538 376.727 338.181 Q 378.071 337.824 379.709 337.824 Q 383.531 337.824 385.778 339.756 Q 388.025 341.688 388.025 345.132 L 388.025 357.06 L 391.049 357.06 L 391.049 360 Z M 378.743 357.69 Q 380.045 357.69 381.116 357.375 Q 382.187 357.06 382.985 356.535 Q 383.783 356.01 384.224 355.275 Q 384.665 354.54 384.665 353.7 L 384.665 350.13 L 380.045 350.13 Q 377.021 350.13 375.635 350.97 Q 374.249 351.81 374.249 353.406 L 374.249 354.288 Q 374.249 355.968 375.446 356.829 Q 376.643 357.69 378.743 357.69 Z M 398.339 338.328 L 401.699 338.328 L 401.699 341.856 L 401.867 341.856 Q 403.967 337.824 408.545 337.824 Q 412.535 337.824 414.782 340.806 Q 417.029 343.788 417.029 349.164 Q 417.029 354.54 414.782 357.522 Q 412.535 360.504 408.545 360.504 Q 403.967 360.504 401.867 356.472 L 401.699 356.472 L 401.699 368.4 L 398.339 368.4 Z M 407.243 357.522 Q 410.183 357.522 411.8 355.737 Q 413.417 353.952 413.417 351.012 L 413.417 347.316 Q 413.417 344.376 411.8 342.591 Q 410.183 340.806 407.243 340.806 Q 406.109 340.806 405.101 341.1 Q 404.093 341.394 403.337 341.961 Q 402.581 342.528 402.14 343.347 Q 401.699 344.166 401.699 345.258 L 401.699 353.07 Q 401.699 354.162 402.14 354.981 Q 402.581 355.8 403.337 356.367 Q 404.093 356.934 405.101 357.228 Q 406.109 357.522 407.243 357.522 Z M 433.349 360.504 Q 431.081 360.504 429.254 359.706 Q 427.427 358.908 426.146 357.417 Q 424.865 355.926 424.193 353.847 Q 423.521 351.768 423.521 349.164 Q 423.521 346.602 424.193 344.502 Q 424.865 342.402 426.146 340.911 Q 427.427 339.42 429.254 338.622 Q 431.081 337.824 433.349 337.824 Q 435.617 337.824 437.444 338.622 Q 439.271 339.42 440.552 340.911 Q 441.833 342.402 442.505 344.502 Q 443.177 346.602 443.177 349.164 Q 443.177 351.768 442.505 353.847 Q 441.833 355.926 440.552 357.417 Q 439.271 358.908 437.444 359.706 Q 435.617 360.504 433.349 360.504 Z M 433.349 357.606 Q 436.163 357.606 437.885 355.926 Q 439.607 354.246 439.607 350.718 L 439.607 347.61 Q 439.607 344.082 437.885 342.402 Q 436.163 340.722 433.349 340.722 Q 430.535 340.722 428.813 342.402 Q 427.091 344.082 427.091 347.61 L 427.091 350.718 Q 427.091 354.246 428.813 355.926 Q 430.535 357.606 433.349 357.606 Z M 459.749 360.504 Q 457.481 360.504 455.654 359.706 Q 453.827 358.908 452.546 357.417 Q 451.265 355.926 450.593 353.847 Q 449.921 351.768 449.921 349.164 Q 449.921 346.602 450.593 344.502 Q 451.265 342.402 452.546 340.911 Q 453.827 339.42 455.654 338.622 Q 457.481 337.824 459.749 337.824 Q 462.017 337.824 463.844 338.622 Q 465.671 339.42 466.952 340.911 Q 468.233 342.402 468.905 344.502 Q 469.577 346.602 469.577 349.164 Q 469.577 351.768 468.905 353.847 Q 468.233 355.926 466.952 357.417 Q 465.671 358.908 463.844 359.706 Q 462.017 360.504 459.749 360.504 Z M 459.749 357.606 Q 462.563 357.606 464.285 355.926 Q 466.007 354.246 466.007 350.718 L 466.007 347.61 Q 466.007 344.082 464.285 342.402 Q 462.563 340.722 459.749 340.722 Q 456.935 340.722 455.213 342.402 Q 453.491 344.082 453.491 347.61 L 453.491 350.718 Q 453.491 354.246 455.213 355.926 Q 456.935 357.606 459.749 357.606 Z M 476.783 357.144 L 483.125 357.144 L 483.125 341.184 L 476.783 341.184 L 476.783 338.328 L 486.485 338.328 L 486.485 343.788 L 486.695 343.788 Q 487.367 341.226 489.236 339.777 Q 491.105 338.328 494.003 338.328 L 497.027 338.328 L 497.027 341.688 L 492.953 341.688 Q 490.055 341.688 488.27 343.368 Q 486.485 345.048 486.485 347.778 L 486.485 357.144 L 494.885 357.144 L 494.885 360 L 476.783 360 Z M 540.713 333.75 L 540.713 360 L 537.185 360 L 537.185 333.75 L 527.399 333.75 L 527.399 330.684 L 550.499 330.684 L 550.499 333.75 Z M 570.473 356.472 L 570.305 356.472 Q 569.969 357.27 569.465 358.005 Q 568.961 358.74 568.226 359.286 Q 567.491 359.832 566.483 360.168 Q 565.475 360.504 564.131 360.504 Q 560.729 360.504 558.671 358.341 Q 556.613 356.178 556.613 352.23 L 556.613 338.328 L 559.973 338.328 L 559.973 351.642 Q 559.973 354.624 561.275 356.073 Q 562.577 357.522 565.097 357.522 Q 566.105 357.522 567.071 357.27 Q 568.037 357.018 568.793 356.514 Q 569.549 356.01 570.011 355.233 Q 570.473 354.456 570.473 353.364 L 570.473 338.328 L 573.833 338.328 L 573.833 360 L 570.473 360 Z M 582.509 357.144 L 590.069 357.144 L 590.069 331.776 L 582.509 331.776 L 582.509 328.92 L 593.429 328.92 L 593.429 357.144 L 600.989 357.144 L 600.989 360 L 582.509 360 Z M 618.401 360.504 Q 614.999 360.504 612.542 359.349 Q 610.085 358.194 608.363 356.262 L 610.631 354.288 Q 612.185 355.926 614.033 356.808 Q 615.881 357.69 618.485 357.69 Q 621.005 357.69 622.622 356.787 Q 624.239 355.884 624.239 353.952 Q 624.239 353.112 623.924 352.545 Q 623.609 351.978 623.063 351.642 Q 622.517 351.306 621.845 351.117 Q 621.173 350.928 620.417 350.802 L 617.015 350.298 Q 615.881 350.13 614.558 349.836 Q 613.235 349.542 612.143 348.891 Q 611.051 348.24 610.316 347.148 Q 609.581 346.056 609.581 344.292 Q 609.581 342.654 610.232 341.457 Q 610.883 340.26 612.059 339.441 Q 613.235 338.622 614.831 338.223 Q 616.427 337.824 618.317 337.824 Q 621.257 337.824 623.42 338.748 Q 625.583 339.672 627.137 341.31 L 624.953 343.368 Q 624.575 342.906 624.008 342.423 Q 623.441 341.94 622.622 341.541 Q 621.803 341.142 620.711 340.89 Q 619.619 340.638 618.191 340.638 Q 615.629 340.638 614.264 341.52 Q 612.899 342.402 612.899 344.082 Q 612.899 344.922 613.214 345.489 Q 613.529 346.056 614.075 346.392 Q 614.621 346.728 615.314 346.917 Q 616.007 347.106 616.721 347.232 L 620.123 347.736 Q 621.299 347.904 622.601 348.198 Q 623.903 348.492 624.995 349.143 Q 626.087 349.794 626.822 350.886 Q 627.557 351.978 627.557 353.742 Q 627.557 356.976 625.058 358.74 Q 622.559 360.504 618.401 360.504 Z M 645.893 333.54 Q 644.423 333.54 643.835 332.931 Q 643.247 332.322 643.247 331.398 L 643.247 330.726 Q 643.247 329.802 643.835 329.193 Q 644.423 328.584 645.893 328.584 Q 647.363 328.584 647.951 329.193 Q 648.539 329.802 648.539 330.726 L 648.539 331.398 Q 648.539 332.322 647.951 332.931 Q 647.363 333.54 645.893 333.54 Z M 636.401 357.144 L 644.213 357.144 L 644.213 341.184 L 636.401 341.184 L 636.401 338.328 L 647.573 338.328 L 647.573 357.144 L 654.881 357.144 L 654.881 360 L 636.401 360 Z" fill="black"/>
  <path d="M 372.254 428 L 372.254 398.684 L 375.782 398.684 L 375.782 424.934 L 389.684 424.934 L 389.684 428 Z M 406.592 428.504 Q 404.24 428.504 402.371 427.706 Q 400.502 426.908 399.179 425.417 Q 397.856 423.926 397.142 421.847 Q 396.428 419.768 396.428 417.206 Q 396.428 414.602 397.163 412.502 Q 397.898 410.402 399.2 408.911 Q 400.502 407.42 402.329 406.622 Q 404.156 405.824 406.382 405.824 Q 408.566 405.824 410.351 406.622 Q 412.136 407.42 413.396 408.827 Q 414.656 410.234 415.328 412.166 Q 416 414.098 416 416.408 L 416 418.004 L 399.956 418.004 L 399.956 419.012 Q 399.956 420.44 400.418 421.658 Q 400.88 422.876 401.741 423.758 Q 402.602 424.64 403.841 425.123 Q 405.08 425.606 406.592 425.606 Q 408.776 425.606 410.372 424.598 Q 411.968 423.59 412.808 421.826 L 415.286 423.506 Q 414.32 425.69 412.073 427.097 Q 409.826 428.504 406.592 428.504 Z M 406.382 408.596 Q 404.996 408.596 403.82 409.1 Q 402.644 409.604 401.783 410.486 Q 400.922 411.368 400.439 412.565 Q 399.956 413.762 399.956 415.19 L 399.956 415.484 L 412.388 415.484 L 412.388 415.022 Q 412.388 413.594 411.947 412.418 Q 411.506 411.242 410.729 410.381 Q 409.952 409.52 408.839 409.058 Q 407.726 408.596 406.382 408.596 Z M 422.282 428 L 422.282 406.328 L 425.39 406.328 L 425.39 408.848 L 425.558 408.848 Q 426.062 407.588 426.986 406.706 Q 427.91 405.824 429.716 405.824 Q 431.606 405.824 432.53 406.769 Q 433.454 407.714 433.664 409.226 L 433.79 409.226 Q 434.378 407.756 435.47 406.79 Q 436.562 405.824 438.494 405.824 Q 441.14 405.824 442.043 407.672 Q 442.946 409.52 442.946 412.964 L 442.946 428 L 439.838 428 L 439.838 413.51 Q 439.838 410.738 439.271 409.667 Q 438.704 408.596 437.192 408.596 Q 435.848 408.596 435.008 409.457 Q 434.168 410.318 434.168 412.082 L 434.168 428 L 431.06 428 L 431.06 413.51 Q 431.06 410.738 430.493 409.667 Q 429.926 408.596 428.456 408.596 Q 427.112 408.596 426.251 409.457 Q 425.39 410.318 425.39 412.082 L 425.39 428 Z M 459.014 428.504 Q 456.746 428.504 454.919 427.706 Q 453.092 426.908 451.811 425.417 Q 450.53 423.926 449.858 421.847 Q 449.186 419.768 449.186 417.164 Q 449.186 414.602 449.858 412.502 Q 450.53 410.402 451.811 408.911 Q 453.092 407.42 454.919 406.622 Q 456.746 405.824 459.014 405.824 Q 461.282 405.824 463.109 406.622 Q 464.936 407.42 466.217 408.911 Q 467.498 410.402 468.17 412.502 Q 468.842 414.602 468.842 417.164 Q 468.842 419.768 468.17 421.847 Q 467.498 423.926 466.217 425.417 Q 464.936 426.908 463.109 427.706 Q 461.282 428.504 459.014 428.504 Z M 459.014 425.606 Q 461.828 425.606 463.55 423.926 Q 465.272 422.246 465.272 418.718 L 465.272 415.61 Q 465.272 412.082 463.55 410.402 Q 461.828 408.722 459.014 408.722 Q 456.2 408.722 454.478 410.402 Q 452.756 412.082 452.756 415.61 L 452.756 418.718 Q 452.756 422.246 454.478 423.926 Q 456.2 425.606 459.014 425.606 Z M 476.93 428 L 476.93 406.328 L 480.29 406.328 L 480.29 409.856 L 480.458 409.856 Q 480.794 409.058 481.298 408.323 Q 481.802 407.588 482.537 407.042 Q 483.272 406.496 484.28 406.16 Q 485.288 405.824 486.632 405.824 Q 490.034 405.824 492.092 407.987 Q 494.15 410.15 494.15 414.098 L 494.15 428 L 490.79 428 L 490.79 414.686 Q 490.79 411.704 489.488 410.255 Q 488.186 408.806 485.666 408.806 Q 484.658 408.806 483.692 409.058 Q 482.726 409.31 481.97 409.814 Q 481.214 410.318 480.752 411.116 Q 480.29 411.914 480.29 412.964 L 480.29 428 Z M 529.31 398.684 L 539.264 398.684 Q 543.044 398.684 545.186 400.742 Q 547.328 402.8 547.328 406.244 Q 547.328 408.89 546.047 410.402 Q 544.766 411.914 542.75 412.544 L 542.75 412.67 Q 545.228 413.258 546.824 414.875 Q 548.42 416.492 548.42 419.558 Q 548.42 421.322 547.832 422.876 Q 547.244 424.43 546.173 425.564 Q 545.102 426.698 543.653 427.349 Q 542.204 428 540.524 428 L 529.31 428 Z M 539.474 424.934 Q 541.91 424.934 543.296 423.842 Q 544.682 422.75 544.682 420.482 L 544.682 418.76 Q 544.682 416.534 543.296 415.421 Q 541.91 414.308 539.474 414.308 L 532.838 414.308 L 532.838 424.934 Z M 538.886 411.41 Q 541.112 411.41 542.372 410.423 Q 543.632 409.436 543.632 407.42 L 543.632 405.782 Q 543.632 403.766 542.372 402.758 Q 541.112 401.75 538.886 401.75 L 532.838 401.75 L 532.838 411.41 Z M 572.804 428 Q 570.83 428 569.99 426.992 Q 569.15 425.984 568.94 424.472 L 568.73 424.472 Q 568.016 426.362 566.441 427.433 Q 564.866 428.504 562.22 428.504 Q 558.818 428.504 556.802 426.74 Q 554.786 424.976 554.786 421.91 Q 554.786 418.886 556.991 417.248 Q 559.196 415.61 564.11 415.61 L 568.73 415.61 L 568.73 413.468 Q 568.73 411.074 567.386 409.877 Q 566.042 408.68 563.564 408.68 Q 561.38 408.68 559.994 409.541 Q 558.608 410.402 557.768 411.872 L 555.5 410.192 Q 555.92 409.352 556.634 408.554 Q 557.348 407.756 558.398 407.147 Q 559.448 406.538 560.792 406.181 Q 562.136 405.824 563.774 405.824 Q 567.596 405.824 569.843 407.756 Q 572.09 409.688 572.09 413.132 L 572.09 425.06 L 575.114 425.06 L 575.114 428 Z M 562.808 425.69 Q 564.11 425.69 565.181 425.375 Q 566.252 425.06 567.05 424.535 Q 567.848 424.01 568.289 423.275 Q 568.73 422.54 568.73 421.7 L 568.73 418.13 L 564.11 418.13 Q 561.086 418.13 559.7 418.97 Q 558.314 419.81 558.314 421.406 L 558.314 422.288 Q 558.314 423.968 559.511 424.829 Q 560.708 425.69 562.808 425.69 Z M 581.774 425.144 L 589.334 425.144 L 589.334 399.776 L 581.774 399.776 L 581.774 396.92 L 592.694 396.92 L 592.694 425.144 L 600.254 425.144 L 600.254 428 L 581.774 428 Z M 607.082 428 L 607.082 406.328 L 610.19 406.328 L 610.19 408.848 L 610.358 408.848 Q 610.862 407.588 611.786 406.706 Q 612.71 405.824 614.516 405.824 Q 616.406 405.824 617.33 406.769 Q 618.254 407.714 618.464 409.226 L 618.59 409.226 Q 619.178 407.756 620.27 406.79 Q 621.362 405.824 623.294 405.824 Q 625.94 405.824 626.843 407.672 Q 627.746 409.52 627.746 412.964 L 627.746 428 L 624.638 428 L 624.638 413.51 Q 624.638 410.738 624.071 409.667 Q 623.504 408.596 621.992 408.596 Q 620.648 408.596 619.808 409.457 Q 618.968 410.318 618.968 412.082 L 618.968 428 L 615.86 428 L 615.86 413.51 Q 615.86 410.738 615.293 409.667 Q 614.726 408.596 613.256 408.596 Q 611.912 408.596 611.051 409.457 Q 610.19 410.318 610.19 412.082 L 610.19 428 Z" fill="black"/>
  <path d="M 439.733 492.094 L 439.523 492.094 Q 439.145 492.934 438.641 493.732 Q 438.137 494.53 437.36 495.139 Q 436.583 495.748 435.491 496.126 Q 434.399 496.504 432.887 496.504 Q 428.099 496.504 425.768 492.64 Q 423.437 488.776 423.437 481.552 Q 423.437 473.992 425.999 470.086 Q 428.561 466.18 433.895 466.18 Q 435.953 466.18 437.465 466.726 Q 438.977 467.272 440.048 468.196 Q 441.119 469.12 441.833 470.275 Q 442.547 471.43 443.009 472.606 L 439.985 473.992 Q 439.607 473.026 439.124 472.165 Q 438.641 471.304 437.948 470.653 Q 437.255 470.002 436.289 469.624 Q 435.323 469.246 434.021 469.246 Q 430.493 469.246 428.834 471.892 Q 427.175 474.538 427.175 478.948 L 427.175 483.484 Q 427.175 485.71 427.511 487.537 Q 427.847 489.364 428.624 490.708 Q 429.401 492.052 430.64 492.787 Q 431.879 493.522 433.685 493.522 Q 436.541 493.522 438.137 491.8 Q 439.733 490.078 439.733 487.348 L 439.733 484.324 L 433.559 484.324 L 433.559 481.51 L 443.009 481.51 L 443.009 496 L 439.733 496 Z M 461.429 469.54 Q 459.959 469.54 459.371 468.931 Q 458.783 468.322 458.783 467.398 L 458.783 466.726 Q 458.783 465.802 459.371 465.193 Q 459.959 464.584 461.429 464.584 Q 462.899 464.584 463.487 465.193 Q 464.075 465.802 464.075 466.726 L 464.075 467.398 Q 464.075 468.322 463.487 468.931 Q 462.899 469.54 461.429 469.54 Z M 451.937 493.144 L 459.749 493.144 L 459.749 477.184 L 451.937 477.184 L 451.937 474.328 L 463.109 474.328 L 463.109 493.144 L 470.417 493.144 L 470.417 496 L 451.937 496 Z M 478.001 496 L 478.001 474.328 L 481.361 474.328 L 481.361 477.856 L 481.529 477.856 Q 481.865 477.058 482.369 476.323 Q 482.873 475.588 483.608 475.042 Q 484.343 474.496 485.351 474.16 Q 486.359 473.824 487.703 473.824 Q 491.105 473.824 493.163 475.987 Q 495.221 478.15 495.221 482.098 L 495.221 496 L 491.861 496 L 491.861 482.686 Q 491.861 479.704 490.559 478.255 Q 489.257 476.806 486.737 476.806 Q 485.729 476.806 484.763 477.058 Q 483.797 477.31 483.041 477.814 Q 482.285 478.318 481.823 479.116 Q 481.361 479.914 481.361 480.964 L 481.361 496 Z M 523.847 498.478 Q 523.847 501.754 521.117 503.329 Q 518.387 504.904 512.927 504.904 Q 507.677 504.904 505.388 503.518 Q 503.099 502.132 503.099 499.528 Q 503.099 497.764 504.023 496.798 Q 504.947 495.832 506.627 495.37 L 506.627 494.866 Q 505.703 494.404 505.199 493.69 Q 504.695 492.976 504.695 491.884 Q 504.695 490.204 505.808 489.364 Q 506.921 488.524 508.601 488.104 L 508.601 487.936 Q 506.585 487.054 505.472 485.332 Q 504.359 483.61 504.359 481.3 Q 504.359 479.662 504.947 478.276 Q 505.535 476.89 506.648 475.903 Q 507.761 474.916 509.315 474.37 Q 510.869 473.824 512.759 473.824 Q 515.195 473.824 517.043 474.706 L 517.043 474.328 Q 517.043 473.068 517.631 472.228 Q 518.219 471.388 519.647 471.388 L 523.637 471.388 L 523.637 474.328 L 518.765 474.328 L 518.765 475.798 Q 519.941 476.806 520.571 478.192 Q 521.201 479.578 521.201 481.3 Q 521.201 482.938 520.592 484.324 Q 519.983 485.71 518.891 486.697 Q 517.799 487.684 516.224 488.23 Q 514.649 488.776 512.759 488.776 Q 512.213 488.776 511.709 488.734 Q 511.205 488.692 510.701 488.608 Q 510.197 488.692 509.651 488.881 Q 509.105 489.07 508.643 489.385 Q 508.181 489.7 507.887 490.12 Q 507.593 490.54 507.593 491.086 Q 507.593 492.052 508.559 492.367 Q 509.525 492.682 511.079 492.682 L 515.867 492.682 Q 520.067 492.682 521.957 494.257 Q 523.847 495.832 523.847 498.478 Z M 520.697 498.646 Q 520.697 497.344 519.647 496.567 Q 518.597 495.79 515.993 495.79 L 508.475 495.79 Q 506.291 496.672 506.291 498.73 Q 506.291 500.158 507.425 501.187 Q 508.559 502.216 511.205 502.216 L 514.481 502.216 Q 517.421 502.216 519.059 501.313 Q 520.697 500.41 520.697 498.646 Z M 512.759 486.172 Q 515.279 486.172 516.476 484.996 Q 517.673 483.82 517.673 481.888 L 517.673 480.67 Q 517.673 478.738 516.476 477.583 Q 515.279 476.428 512.759 476.428 Q 510.239 476.428 509.063 477.583 Q 507.887 478.738 507.887 480.67 L 507.887 481.888 Q 507.887 483.82 509.063 484.996 Q 510.239 486.172 512.759 486.172 Z M 539.663 496.504 Q 537.311 496.504 535.442 495.706 Q 533.573 494.908 532.25 493.417 Q 530.927 491.926 530.213 489.847 Q 529.499 487.768 529.499 485.206 Q 529.499 482.602 530.234 480.502 Q 530.969 478.402 532.271 476.911 Q 533.573 475.42 535.4 474.622 Q 537.227 473.824 539.453 473.824 Q 541.637 473.824 543.422 474.622 Q 545.207 475.42 546.467 476.827 Q 547.727 478.234 548.399 480.166 Q 549.071 482.098 549.071 484.408 L 549.071 486.004 L 533.027 486.004 L 533.027 487.012 Q 533.027 488.44 533.489 489.658 Q 533.951 490.876 534.812 491.758 Q 535.673 492.64 536.912 493.123 Q 538.151 493.606 539.663 493.606 Q 541.847 493.606 543.443 492.598 Q 545.039 491.59 545.879 489.826 L 548.357 491.506 Q 547.391 493.69 545.144 495.097 Q 542.897 496.504 539.663 496.504 Z M 539.453 476.596 Q 538.067 476.596 536.891 477.1 Q 535.715 477.604 534.854 478.486 Q 533.993 479.368 533.51 480.565 Q 533.027 481.762 533.027 483.19 L 533.027 483.484 L 545.459 483.484 L 545.459 483.022 Q 545.459 481.594 545.018 480.418 Q 544.577 479.242 543.8 478.381 Q 543.023 477.52 541.91 477.058 Q 540.797 476.596 539.453 476.596 Z M 556.319 493.144 L 562.661 493.144 L 562.661 477.184 L 556.319 477.184 L 556.319 474.328 L 566.021 474.328 L 566.021 479.788 L 566.231 479.788 Q 566.903 477.226 568.772 475.777 Q 570.641 474.328 573.539 474.328 L 576.563 474.328 L 576.563 477.688 L 572.489 477.688 Q 569.591 477.688 567.806 479.368 Q 566.021 481.048 566.021 483.778 L 566.021 493.144 L 574.421 493.144 L 574.421 496 L 556.319 496 Z" fill="black"/>
</svg>