<svg xmlns="http://www.w3.org/2000/svg"
     viewBox="0 0 1 1">
    <path d="M 0.15333503397022297 0.913335033970223 L 0.1658674168323464 0.9017404327053622 L 0.17835364321306174 0.8900996749590935 L 0.19080107625882864 0.8784201238778763 L 0.20321325359434025 0.8667053170864039 L 0.21559256337849259 0.854957642743572 L 0.22794082059444723 0.8431789158325426 L 0.24025949711384575 0.8313706082249569 L 0.2525498369328765 0.8195339639170035 L 0.26481292202163986 0.8076700648787828 L 0.2770497134129993 0.7957798721431579 L 0.2892610785210958 0.7838642531242704 L 0.3014478102003344 0.7719240006765249 L 0.3054478102003344 0.7517525482745674 L 0.3176425053598459 0.7398647275820681 L 0.3298628517053866 0.7279580898006247 L 0.34206488330069057 0.7160331372689446 L 0.3620359801442541 0.7118772499855239 L 0.3817616439850388 0.7074759296993245 L 0.3861212054278452 0.6877085070151469 L 0.3981338027911366 0.675594120251454 L 0.4101270354074111 0.6634603687407445 L 0.4221013653756708 0.65130771458202 L 0.43405723925278195 0.6391366043321469 L 0.44599508947868277 0.6269474704310637 L 0.45791533561256736 0.6147407324379643 L 0.4698183854119781 0.6025167981103908 L 0.48170463578028744 0.590276064351716 L 0.4935744736030989 0.5780189180475434 L 0.4992165107863822 0.5595339711038425 L 0.5112044460909756 0.5473949222814518 L 0.5290892454164826 0.5411527374799747 L 0.5408971259102958 0.5288336338468038 L 0.552690401389402 0.5164999251989256 L 0.5644694117475608 0.5041519514301005 L 0.576234490695562 0.49179004625111766 L 0.5828743337533331 0.47430290518190454 L 0.594778983511828 0.4620805708134153 L 0.6114493907645265 0.45462399393912983 L 0.6231619694523993 0.4422095885000184 L 0.63486220408207 0.4297828390027049 L 0.6465503978272547 0.41734404862090546 L 0.6623083688392144 0.40897503550588127 L 0.6698918544751107 0.3924315370147933 L 0.6778233509672352 0.37623604937993366 L 0.6896486559216067 0.3639343702073209 L 0.6981092009569061 0.3482679311156363 L 0.7132730384923422 0.3393047845240882 L 0.7250725811166987 0.32697734302146064 L 0.7396575515279676 0.31743532930574536 L 0.7512503843628306 0.3049011780136243 L 0.7628340049751814 0.2923578144989909 L 0.7721917335478259 0.27758855894465145 L 0.7819310909331247 0.26320093220296603 L 0.7938817788977853 0.25102463604064257 L 0.8041997146417513 0.23721558765762443 L 0.8177669966929805 0.2266558855818693 L 0.8288126252337785 0.21357452999568316 L 0.838863701018514 0.19949862165343468 L 0.8502654950628223 0.18677343157075874 L 0.8616776792475888 0.17405863162854118 L 0.8717807057346156 0.16003467398858384 L 0.8819045125025589 0.1460314966295431 L 0.8920490995514188 0.13204909955141877 Z"
          fill="black"
          stroke="black"
          stroke-width="0.006"
          stroke-linejoin="round"
          stroke-linecap="round" />
</svg>