<svg xmlns="http://www.w3.org/2000/svg"
     viewBox="0 0 1 1">
    <path d="M 0.15394112549695427 0.9139411254969543 L 0.16647123564539917 0.902344251518415 L 0.18736914195677357 0.8991151737028054 L 0.199768325994636 0.8873873736136836 L 0.212126378370534 0.8756184418625975 L 0.2161827981712495 0.8555478775363289 L 0.22852673683301258 0.8437648320711079 L 0.2408407661238134 0.8319518772349246 L 0.24505784685400964 0.8120419738381366 L 0.25738937578785737 0.8002465186450003 L 0.269698409002815 0.7884285677329738 L 0.28198568861986995 0.7765888632230447 L 0.30200134229497444 0.7724775327711649 L 0.30600134229497444 0.7451867093706568 L 0.31115630864132865 0.7333785308635509 L 0.3234593079064938 0.7215545460017319 L 0.3431178767205623 0.7170861306888163 L 0.348019553245586 0.6978608230868558 L 0.353116225455358 0.6788305111696437 L 0.3654695992300303 0.6670569008173319 L 0.3847512634822779 0.6622115809425954 L 0.3901441957927036 0.643477529126037 L 0.4158754959768583 0.6450818451832075 L 0.427944188651848 0.633023553731213 L 0.4464564455084342 0.6274088264608152 L 0.4520356722532537 0.6088610690786507 L 0.46405917099509975 0.5967575836935125 L 0.48213820031028365 0.5907096288817122 L 0.4939984038078687 0.5784428482523131 L 0.5058423942038469 0.5661598545213072 L 0.517670544593539 0.5538610207840152 L 0.5294832199605168 0.541546712024009 L 0.5412807777143369 0.5292172856508448 L 0.5530635681755087 0.5168730919850324 L 0.5648319350143896 0.5045144746969292 L 0.5815103650071262 0.49706592056268173 L 0.593097598486918 0.48452616991548947 L 0.6046693373115335 0.47197092461312073 L 0.616225951540988 0.45940055471559127 L 0.6277678054946407 0.4468154245422597 L 0.6351577410130691 0.43007837593370407 L 0.6468342821654982 0.41762793295914896 L 0.6584989509244568 0.40516561759112363 L 0.6665093710557328 0.3890490535954154 L 0.6748454689988647 0.3732581674115631 L 0.6868166334954477 0.36110234778116185 L 0.7019125990868261 0.3520713292455563 L 0.7107369315246874 0.33676867755643336 L 0.7226864556640579 0.3245912175688198 L 0.732021835713742 0.3097996134915197 L 0.7441358670440666 0.2977866606948603 L 0.7562448828310235 0.2857686923548331 L 0.7683490277935416 0.27374585319036715 L 0.7785614415875148 0.2598312828573562 L 0.7891361813521803 0.24627903849503757 L 0.8015960197341763 0.23461189275004937 L 0.8153868788139226 0.2242757677028115 L 0.8266681002431955 0.2114300050051001 L 0.8393977542380682 0.20003267487298879 L 0.8496448573394495 0.18615279384738587 L 0.859911355369686 0.17229230775063845 L 0.8714288263110962 0.1596827945650644 L 0.8817292654668297 0.14585624959381394 L 0.8920490995514188 0.13204909955141877 Z"
          fill="black"
          stroke="black"
          stroke-width="0.006"
          stroke-linejoin="round"
          stroke-linecap="round" />
</svg>