<svg xmlns="http://www.w3.org/2000/svg"
     viewBox="0 0 1 1">
    <path d="M 0.16242640687119286 0.9224264068711928 L 0.16647123564539917 0.902344251518415 L 0.17895467646264251 0.8907007082086743 L 0.19139889290788245 0.87901794052693 L 0.19548854545497232 0.8589806089470359 L 0.1996562239740562 0.8390213033391356 L 0.21212108215318248 0.8273591773912778 L 0.22456523384471952 0.8156763449558306 L 0.23698954984599913 0.8039736768301261 L 0.24939478753609154 0.7922519303932345 L 0.2617816196380012 0.7805117783681599 L 0.2741506533416268 0.7687538279448014 L 0.30200134229497444 0.7724775327711649 L 0.31415779379724196 0.7605070001464482 L 0.3187235381462654 0.7409457603684877 L 0.3309301090052021 0.7290253471004401 L 0.3504888306596645 0.7244570846279186 L 0.362555107066427 0.7123963769076969 L 0.37460028935261863 0.7003145750669043 L 0.37957313517000146 0.6811604367573031 L 0.39169035793872314 0.6691506753990406 L 0.4037910130905526 0.6571243464238861 L 0.4158754959768583 0.6450818451832075 L 0.44111075917693643 0.6461901242563014 L 0.45291542992495515 0.6338678108773361 L 0.46469956256562156 0.6215249593910185 L 0.47026140190558413 0.602959814603997 L 0.48213820031028365 0.5907096288817122 L 0.4939984038078687 0.5784428482523131 L 0.5058423942038469 0.5661598545213072 L 0.517670544593539 0.5538610207840152 L 0.5294832199605168 0.541546712024009 L 0.5412807777143369 0.5292172856508448 L 0.5530635681755087 0.5168730919850324 L 0.5648319350143896 0.5045144746969292 L 0.5716620662922065 0.4872176218477621 L 0.5835558847355721 0.4749844561641436 L 0.5908228419919459 0.45812442929353314 L 0.602851581366896 0.4460261845414992 L 0.6105726842702731 0.42962030331789214 L 0.6227451899111042 0.4176658248317391 L 0.6388855206946799 0.40967917148833066 L 0.6508801150949415 0.3975467817616083 L 0.6665093710557328 0.3890490535954154 L 0.6748454689988647 0.3732581674115631 L 0.6901206596592999 0.3644063739450141 L 0.7019125990868261 0.3520713292455563 L 0.7136957229869514 0.33972746901869727 L 0.7282540817202199 0.33015884362498177 L 0.7398437884990463 0.31762156627682403 L 0.7514239091754834 0.3050747028262771 L 0.7629947152713804 0.29251852479518986 L 0.7724873262981555 0.277884151694981 L 0.7842224524881395 0.2654922937579808 L 0.7942468248628318 0.2513896820056891 L 0.8046336637930138 0.23764953680888695 L 0.8153868788139226 0.2242757677028115 L 0.8279190731543689 0.21268097791627355 L 0.8381516300591085 0.19878655069402917 L 0.8496448573394495 0.18615279384738587 L 0.859911355369686 0.17229230775063845 L 0.8714288263110962 0.1596827945650644 L 0.8817292654668297 0.14585624959381394 L 0.8920490995514188 0.13204909955141877 Z"
          fill="black"
          stroke="black"
          stroke-width="0.006"
          stroke-linejoin="round"
          stroke-linecap="round" />
</svg>