<svg xmlns="http://www.w3.org/2000/svg"
     viewBox="0 0 1 1">
    <path d="M 0.16242640687119286 0.9224264068711928 L 0.16642640687119287 0.9010437186903013 L 0.18736914195677357 0.8991151737028054 L 0.19136914195677357 0.8777303354366602 L 0.20252762861155613 0.8660196921036196 L 0.21491152323300386 0.8542766025980832 L 0.23672956417292762 0.8519676594110229 L 0.24072956417292762 0.8306999132134558 L 0.26119444087003063 0.8281785678541576 L 0.26519444087003063 0.8070111702426482 L 0.26919444087003064 0.7859926325438003 L 0.28861533385530647 0.7832185084584812 L 0.29261533385530647 0.7623436375000617 L 0.2966153338553065 0.7416512576531664 L 0.31639515983705413 0.7386173820592764 L 0.3286314009748303 0.7267266390700684 L 0.3408498908931462 0.7148181448614003 L 0.35305109110664634 0.7028923609479162 L 0.36523544098714605 0.6909497267014317 L 0.3692667050600225 0.6708540066473242 L 0.3815486045023801 0.6590089219626976 L 0.3855486045023801 0.6314053445933244 L 0.4060761985799109 0.63528254778626 L 0.42591856241721904 0.630997927496584 L 0.43801008127144536 0.6189624622238263 L 0.4500873814359663 0.6069127782613633 L 0.4693072125347404 0.6020056252331532 L 0.48120436901490715 0.5897757975863358 L 0.499933426674645 0.5843778711190893 L 0.5049504483591882 0.5652679086766486 L 0.5233283807832819 0.5595188569737582 L 0.5286346594041355 0.5406981514676276 L 0.5466519029709123 0.5345884109074203 L 0.5582879031810039 0.5220974269905275 L 0.5640511156704509 0.5037336553529905 L 0.5758286542100571 0.4913842097656127 L 0.593097598486918 0.48452616991548947 L 0.6046693373115335 0.47197092461312073 L 0.6110819630124911 0.4542565661870943 L 0.6277678054946407 0.4468154245422597 L 0.6317678054946407 0.4246677767354117 L 0.6462228389754352 0.417016489769086 L 0.6579128866298787 0.4045795532965455 L 0.6695916340532724 0.39213131659295497 L 0.6852680558881616 0.38368075430086007 L 0.6967287119870043 0.3710144262727184 L 0.708177019536106 0.35833574969483617 L 0.7196133059114792 0.3456450519432251 L 0.7310378947483008 0.3329426566530628 L 0.7424511060941478 0.3202288838719255 L 0.7510501634251543 0.304700957075948 L 0.7626485700180288 0.2921723795418383 L 0.7742381448962613 0.27963497029308687 L 0.7858191478703669 0.26708898914020823 L 0.7954262041345207 0.25256906127737794 L 0.805451491039624 0.23846736405549707 L 0.8158995195878735 0.2247884084767624 L 0.8284002165817433 0.21316212134364795 L 0.8396853213562896 0.20032024199121023 L 0.850981615512868 0.18748955202080436 L 0.8608624528424029 0.1732434052233553 L 0.8707656689360018 0.15901963718997006 L 0.8821067206207079 0.14623370474769215 L 0.8920490995514188 0.13204909955141877 Z"
          fill="black"
          stroke="black"
          stroke-width="0.006"
          stroke-linejoin="round"
          stroke-linecap="round" />
</svg>