<svg xmlns="http://www.w3.org/2000/svg"
     viewBox="0 0 1 1">
    <path d="M 0.1454558441227157 0.9054558441227157 L 0.14956430887992161 0.8854373247529375 L 0.15371127998024933 0.8654573117262812 L 0.1662905936476217 0.8539096412666694 L 0.1871696289971915 0.850661692489255 L 0.20791951107265283 0.8472845904377322 L 0.21212108215318248 0.8273591773912778 L 0.22456523384471952 0.8156763449558306 L 0.2289212528379886 0.7959053798221156 L 0.2329212528379886 0.768268165637937 L 0.2380312515435597 0.7567614102737183 L 0.2584805827851404 0.7530837573883151 L 0.27875299432009054 0.7492291847962811 L 0.29883750302145046 0.7451867093706568 L 0.3187235381462654 0.7409457603684877 L 0.3234593079064938 0.7215545460017319 L 0.33574692278146007 0.7097151767497142 L 0.348019553245586 0.6978608230868558 L 0.3602775800877782 0.6859918658020638 L 0.37957313517000146 0.6811604367573031 L 0.39169035793872314 0.6691506753990406 L 0.4106144217394771 0.6639477550728106 L 0.4158754959768583 0.6450818451832075 L 0.44111075917693643 0.6461901242563014 L 0.4464564455084342 0.6274088264608152 L 0.45836761740943766 0.6151930142348345 L 0.47026140190558413 0.602959814603997 L 0.48213820031028365 0.5907096288817122 L 0.4939984038078687 0.5784428482523131 L 0.4979984038078687 0.5545645585407439 L 0.5063548722140531 0.5425453484045293 L 0.5184519327275589 0.530515424791051 L 0.5305385272011861 0.5184750351376941 L 0.5373905631590233 0.501200086968547 L 0.5546812835431878 0.4943638232257274 L 0.5667379169347466 0.48229347249030224 L 0.5835558847355721 0.4749844561641436 L 0.5954383404318084 0.4627399277333957 L 0.611767828149624 0.45494243132422724 L 0.6234690251885487 0.4425166442361678 L 0.6310202239790808 0.4259408588997158 L 0.6468342821654982 0.41762793295914896 L 0.6584989509244568 0.40516561759112363 L 0.6628666966040951 0.38540637914377773 L 0.6748454689988647 0.3732581674115631 L 0.6901206596592999 0.3644063739450141 L 0.7019125990868261 0.3520713292455563 L 0.7136957229869514 0.33972746901869727 L 0.7254702686921388 0.32737503059690076 L 0.7372364709039448 0.3150142486817226 L 0.7465652144212055 0.3002160080719993 L 0.7584948269778092 0.2880186365016187 L 0.7683490277935416 0.27374585319036715 L 0.7766744379539734 0.25794427922381463 L 0.7891361813521803 0.24627903849503757 L 0.8015960197341763 0.23461189275004937 L 0.8140540128016502 0.2229429016905391 L 0.8241661544208485 0.20892805918275317 L 0.8344132575222297 0.19504817815715036 L 0.8459210309992121 0.1824289675071486 L 0.8562020752260903 0.16858302760704275 L 0.8714288263110962 0.1596827945650644 L 0.8817292654668297 0.14585624959381394 L 0.8920490995514188 0.13204909955141877 Z"
          fill="black"
          stroke="black"
          stroke-width="0.006"
          stroke-linejoin="round"
          stroke-linecap="round" />
</svg>