<svg xmlns="http://www.w3.org/2000/svg"
     viewBox="0 0 1 1">
    <path d="M 0.1454558441227157 0.9054558441227157 L 0.14956430887992161 0.8854373247529375 L 0.17054021096851146 0.8822862427145433 L 0.19139889290788245 0.87901794052693 L 0.20380746191275317 0.8672995254048167 L 0.20791951107265283 0.8472845904377322 L 0.21212108215318248 0.8273591773912778 L 0.23270299998426644 0.8238141110953776 L 0.24505784685400964 0.8120419738381366 L 0.25738937578785737 0.8002465186450003 L 0.2776151983676288 0.7963453570977875 L 0.28198568861986995 0.7765888632230447 L 0.2942518929700132 0.7647280834462037 L 0.31415779379724196 0.7605070001464482 L 0.3187235381462654 0.7409457603684877 L 0.3384009101039103 0.7364961481991483 L 0.3504888306596645 0.7244570846279186 L 0.3552873301560065 0.7051285999972763 L 0.3674389347201984 0.6931532204344841 L 0.37957313517000146 0.6811604367573031 L 0.3986294523951684 0.6760897698554857 L 0.4106144217394771 0.6639477550728106 L 0.42258027840634865 0.6517866276126979 L 0.4345274739143922 0.6396068389937573 L 0.4464564455084342 0.6274088264608152 L 0.46469956256562156 0.6215249593910185 L 0.47026140190558413 0.602959814603997 L 0.47606829689033675 0.5846397254617653 L 0.48806338094109236 0.5725078253855368 L 0.5000447462135653 0.5603622065310256 L 0.512012708403796 0.5482031845942723 L 0.5294832199605168 0.541546712024009 L 0.5412807777143369 0.5292172856508448 L 0.5530635681755087 0.5168730919850324 L 0.5597566092787887 0.4994391489613283 L 0.5716620662922065 0.4872176218477621 L 0.5883267416112451 0.4797553130398165 L 0.600053838871671 0.4673554261732582 L 0.611767828149624 0.45494243132422724 L 0.6234690251885487 0.4425166442361678 L 0.6351577410130691 0.43007837593370407 L 0.6468342821654982 0.41762793295914896 L 0.6546895330096991 0.40135619967636593 L 0.6665093710557328 0.3890490535954154 L 0.6783196646286304 0.37673236304132873 L 0.6901206596592999 0.3644063739450141 L 0.7019125990868261 0.3520713292455563 L 0.7136957229869514 0.33972746901869727 L 0.7254702686921388 0.32737503059690076 L 0.7372364709039448 0.3150142486817226 L 0.7465652144212055 0.3002160080719993 L 0.7584948269778092 0.2880186365016187 L 0.7683490277935416 0.27374585319036715 L 0.7766744379539734 0.25794427922381463 L 0.7874326335152965 0.24457549065815373 L 0.8000771977047575 0.23309307072063057 L 0.8113882807771055 0.22027716966599434 L 0.8216642085985016 0.20642611336040625 L 0.8369055058801489 0.19754042651506956 L 0.8484035818927037 0.1849115184006401 L 0.8586749286551542 0.17105588103610656 L 0.8714288263110962 0.1596827945650644 L 0.8817292654668297 0.14585624959381394 L 0.8920490995514188 0.13204909955141877 Z"
          fill="black"
          stroke="black"
          stroke-width="0.006"
          stroke-linejoin="round"
          stroke-linecap="round" />
</svg>