<svg xmlns="http://www.w3.org/2000/svg"
     viewBox="0 0 1 1">
    <path d="M 0.1454558441227157 0.9054558441227157 L 0.1580177722626604 0.8938907881356762 L 0.17895467646264251 0.8907007082086743 L 0.19139889290788245 0.87901794052693 L 0.20380746191275317 0.8672995254048167 L 0.2161827981712495 0.8555478775363289 L 0.22852673683301258 0.8437648320711079 L 0.23270299998426644 0.8238141110953776 L 0.23698954984599913 0.8039736768301261 L 0.25738937578785737 0.8002465186450003 L 0.2776151983676288 0.7963453570977875 L 0.28982072389811314 0.7844238985012878 L 0.2942518929700132 0.7647280834462037 L 0.3218179391851377 0.7681671455343441 L 0.333857997156139 0.7560802193783613 L 0.3458717112026186 0.7439669492978567 L 0.3578597845987667 0.7318280385670208 L 0.3698228839768475 0.7196641538181173 L 0.37460028935261863 0.7003145750669043 L 0.38662490313998704 0.6882122047272886 L 0.3986294523951684 0.6760897698554857 L 0.4106144217394771 0.6639477550728106 L 0.42258027840634865 0.6517866276126979 L 0.4345274739143922 0.6396068389937573 L 0.45291542992495515 0.6338678108773361 L 0.46469956256562156 0.6215249593910185 L 0.4764636328160685 0.6091620455144813 L 0.4882081037302305 0.596779532301659 L 0.499933426674645 0.5843778711190893 L 0.5116400421941286 0.5719575025115889 L 0.5233283807832819 0.5595188569737582 L 0.5349988635769959 0.547062355640488 L 0.5466519029709123 0.5345884109074203 L 0.5506519029709123 0.5116487569795373 L 0.5597566092787887 0.4994391489613283 L 0.5667379169347466 0.48229347249030224 L 0.5835558847355721 0.4749844561641436 L 0.5908228419919459 0.45812442929353314 L 0.602851581366896 0.4460261845414992 L 0.6191702448824569 0.43821786393007595 L 0.6310202239790808 0.4259408588997158 L 0.642859901430089 0.4136535522237398 L 0.6508801150949415 0.3975467817616083 L 0.6628666966040951 0.38540637914377773 L 0.6748454689988647 0.3732581674115631 L 0.6802085811677433 0.35449429545345745 L 0.6956481786375461 0.34580690879627635 L 0.7107369315246874 0.33676867755643336 L 0.7199026426359768 0.3218074045407388 L 0.7294145181186406 0.3071922958964183 L 0.7441358670440666 0.2977866606948603 L 0.753994938684238 0.2835187482080475 L 0.7683490277935416 0.27374585319036715 L 0.7804484452210564 0.2617182864908977 L 0.7942468248628318 0.2513896820056891 L 0.8061524858224327 0.23916835883830576 L 0.8153868788139226 0.2242757677028115 L 0.8266681002431955 0.2114300050051001 L 0.8381516300591085 0.19878655069402917 L 0.8484035818927037 0.1849115184006401 L 0.859911355369686 0.17229230775063845 L 0.8701972483287781 0.15845121658274633 L 0.8817292654668297 0.14585624959381394 L 0.8920490995514188 0.13204909955141877 Z"
          fill="black"
          stroke="black"
          stroke-width="0.006"
          stroke-linejoin="round"
          stroke-linecap="round" />
</svg>