<svg xmlns="http://www.w3.org/2000/svg"
     viewBox="0 0 1 1">
    <path d="M 0.16242640687119286 0.9224264068711928 L 0.16642640687119287 0.9017404327053622 L 0.18736914195677357 0.8991151737028054 L 0.199768325994636 0.8873873736136836 L 0.212126378370534 0.8756184418625975 L 0.216126378370534 0.854957642743572 L 0.22794082059444723 0.8431789158325426 L 0.24025949711384575 0.8313706082249569 L 0.2525498369328765 0.8195339639170035 L 0.25654983693287653 0.7991044346090337 L 0.2770497134129993 0.7957798721431579 L 0.2810497134129993 0.7754695724690098 L 0.293144828780733 0.7636210192569235 L 0.30540334192536106 0.7517525482745674 L 0.3176425053598459 0.7398647275820681 L 0.3378672814540026 0.7359625195492406 L 0.34996233394972864 0.7239305879179827 L 0.35396233394972865 0.6963034423203371 L 0.3587430040951167 0.6844572898094023 L 0.3861212054278452 0.6877085070151469 L 0.40556854685161364 0.683028864311931 L 0.4174378303884016 0.6707711637217351 L 0.429285060835839 0.6584914100421883 L 0.43405723925278195 0.6391366043321469 L 0.45291542992495515 0.6338678108773361 L 0.46469956256562156 0.6215249593910185 L 0.4764636328160685 0.6091620455144813 L 0.4882081037302305 0.596779532301659 L 0.499933426674645 0.5843778711190893 L 0.5116400421941286 0.5719575025115889 L 0.5233283807832819 0.5595188569737582 L 0.5290892454164826 0.5411527374799747 L 0.5408971259102958 0.5288336338468038 L 0.5582879031810039 0.5220974269905275 L 0.5699072607499904 0.5095898004325301 L 0.576234490695562 0.49179004625111766 L 0.593097598486918 0.48452616991548947 L 0.6046693373115335 0.47197092461312073 L 0.6114493907645265 0.45462399393912983 L 0.618556133410158 0.4376037524577771 L 0.63486220408207 0.4297828390027049 L 0.6465503978272547 0.41734404862090546 L 0.6582268496448312 0.40489351631149806 L 0.6698918544751107 0.3924315370147933 L 0.6778233509672352 0.37623604937993366 L 0.6931886839543056 0.36747439824001965 L 0.7048210800097061 0.3549798101684362 L 0.7164431722019107 0.3424749182336566 L 0.7280552379324998 0.3299599998372617 L 0.7368639969617875 0.3146417747395652 L 0.7486475121730389 0.3022983058238326 L 0.7604233505321968 0.28994716005600635 L 0.7677578422928826 0.27315466768970803 L 0.7778875117183929 0.25915735298823417 L 0.7902313192473199 0.2473741763901772 L 0.799317786690048 0.23233365970592118 L 0.810626643055807 0.21951553194469584 L 0.8247916408764353 0.2095535456383399 L 0.8361934349207434 0.19682835555566408 L 0.8489355570841661 0.18544349359210258 L 0.8616776792475888 0.17405863162854118 L 0.8717807057346156 0.16003467398858384 L 0.8819045125025589 0.1460314966295431 L 0.8920490995514188 0.13204909955141877 Z"
          fill="black"
          stroke="black"
          stroke-width="0.006"
          stroke-linejoin="round"
          stroke-linecap="round" />
</svg>