<svg xmlns="http://www.w3.org/2000/svg"
     viewBox="0 0 1 1">
    <path d="M 0.16242640687119286 0.9224264068711928 L 0.17492469902813795 0.9107977149011538 L 0.18736914195677357 0.8991151737028054 L 0.199768325994636 0.8873873736136836 L 0.212126378370534 0.8756184418625975 L 0.216126378370534 0.854957642743572 L 0.23672956417292762 0.8519676594110229 L 0.2489785322633603 0.8400896433744715 L 0.26119444087003063 0.8281785678541576 L 0.27337855229138897 0.8162356951485319 L 0.27737855229138897 0.7957798721431579 L 0.29765575917635634 0.7922589337795309 L 0.3097507916199358 0.7802269820961263 L 0.3218179391851377 0.7681671455343441 L 0.333857997156139 0.7560802193783613 L 0.3458717112026186 0.7439669492978567 L 0.34996233394972864 0.7239305879179827 L 0.3620359801442541 0.7118772499855239 L 0.37408876402173147 0.6998030497360171 L 0.3861212054278452 0.6877085070151469 L 0.3981338027911366 0.675594120251454 L 0.4101270354074111 0.6634603687407445 L 0.4221013653756708 0.65130771458202 L 0.43405723925278195 0.6391366043321469 L 0.44599508947868277 0.6269474704310637 L 0.45791533561256736 0.6147407324379643 L 0.4631731380078877 0.5958715507063004 L 0.47520116783034433 0.5837725964017729 L 0.48721552053155287 0.5716599649759972 L 0.4992165107863822 0.5595339711038425 L 0.5112044460909756 0.5473949222814518 L 0.5172700090954562 0.5293335011589483 L 0.5351423488496793 0.5230788567861873 L 0.5470928995977999 0.5109024234073237 L 0.5535937137427018 0.4932762534252415 L 0.5656827420724337 0.4812382976279894 L 0.5828743337533331 0.47430290518190454 L 0.5997241604116808 0.467025747713268 L 0.6114493907645265 0.45462399393912983 L 0.618556133410158 0.4376037524577771 L 0.6304291501170824 0.4253497850377174 L 0.6380338676799493 0.4088275184736001 L 0.6541453304504481 0.40081199711711485 L 0.6698918544751107 0.3924315370147933 L 0.6778233509672352 0.37623604937993366 L 0.6861086278889079 0.3603943421746221 L 0.6981092009569061 0.3482679311156363 L 0.7101029047827737 0.3361346508145197 L 0.7220899243008976 0.3239946862056596 L 0.7312768878294273 0.309054665607205 L 0.7408388956036638 0.2944896892544575 L 0.7507807327602586 0.28030454228406804 L 0.7588900597829957 0.2642868851798213 L 0.7718221428962951 0.25309198416613643 L 0.7865808595968545 0.2437237167397118 L 0.799317786690048 0.23233365970592118 L 0.8091985723283723 0.21808746121726116 L 0.8234513127573209 0.20821321751922547 L 0.8375285679696287 0.19816348860454938 L 0.84760561910551 0.18411355561344642 L 0.8590281934307347 0.1714091458116871 L 0.8717807057346156 0.16003467398858384 L 0.8819045125025589 0.1460314966295431 L 0.8920490995514188 0.13204909955141877 Z"
          fill="black"
          stroke="black"
          stroke-width="0.006"
          stroke-linejoin="round"
          stroke-linecap="round" />
</svg>