<svg xmlns="http://www.w3.org/2000/svg"
     viewBox="0 0 1 1">
    <path d="M 0.13697056274847713 0.8969705627484772 L 0.1580177722626604 0.8938907881356762 L 0.1621257454743804 0.8738717772204122 L 0.17466002673437528 0.8622790743534229 L 0.1871696289971915 0.850661692489255 L 0.2161827981712495 0.8555478775363289 L 0.22852673683301258 0.8437648320711079 L 0.2408407661238134 0.8319518772349246 L 0.25312614386202015 0.8201102708461471 L 0.26538396403962317 0.8082411068967661 L 0.269698409002815 0.7884285677329738 L 0.28198568861986995 0.7765888632230447 L 0.2942518929700132 0.7647280834462037 L 0.3064976484093462 0.7528468547585525 L 0.3187235381462654 0.7409457603684877 L 0.3309301090052021 0.7290253471004401 L 0.3431178767205623 0.7170861306888163 L 0.3552873301560065 0.7051285999972763 L 0.3674389347201984 0.6931532204344841 L 0.37957313517000146 0.6811604367573031 L 0.39169035793872314 0.6691506753990406 L 0.4037910130905526 0.6571243464238861 L 0.4158754959768583 0.6450818451832075 L 0.4213609033893038 0.6264402684686688 L 0.43999746109191334 0.6209498420442944 L 0.4520356722532537 0.6088610690786507 L 0.47026140190558413 0.602959814603997 L 0.48213820031028365 0.5907096288817122 L 0.4939984038078687 0.5784428482523131 L 0.5058423942038469 0.5661598545213072 L 0.512012708403796 0.5482031845942723 L 0.5294832199605168 0.541546712024009 L 0.5359096524577616 0.5238461603942695 L 0.5478392331700136 0.5116487569795373 L 0.5699072607499904 0.5095898004325301 L 0.5815103650071262 0.49706592056268173 L 0.593097598486918 0.48452616991548947 L 0.6046693373115335 0.47197092461312073 L 0.616225951540988 0.45940055471559127 L 0.6277678054946407 0.4468154245422597 L 0.6351577410130691 0.43007837593370407 L 0.6468342821654982 0.41762793295914896 L 0.6584989509244568 0.40516561759112363 L 0.6665093710557328 0.3890490535954154 L 0.6817938602583961 0.3802065586710944 L 0.6901206596592999 0.3644063739450141 L 0.7050448093114661 0.35520353947019623 L 0.7136957229869514 0.33972746901869727 L 0.7254702686921388 0.32737503059690076 L 0.7372364709039448 0.3150142486817226 L 0.7465652144212055 0.3002160080719993 L 0.7584948269778092 0.2880186365016187 L 0.7683490277935416 0.27374585319036715 L 0.7785614415875148 0.2598312828573562 L 0.7891361813521803 0.24627903849503757 L 0.7985583756753387 0.23157424869121176 L 0.8113882807771055 0.22027716966599434 L 0.8241661544208485 0.20892805918275317 L 0.8344132575222297 0.19504817815715036 L 0.8459210309992121 0.1824289675071486 L 0.8562020752260903 0.16858302760704275 L 0.8701972483287781 0.15845121658274633 L 0.8817292654668297 0.14585624959381394 L 0.8920490995514188 0.13204909955141877 Z"
          fill="black"
          stroke="black"
          stroke-width="0.006"
          stroke-linejoin="round"
          stroke-linecap="round" />
</svg>