<svg xmlns="http://www.w3.org/2000/svg"
     viewBox="0 0 1 1">
    <path d="M 0.15333503397022297 0.913335033970223 L 0.15733503397022297 0.8926831505095707 L 0.17835364321306174 0.8900996749590935 L 0.19080107625882864 0.8784201238778763 L 0.212126378370534 0.8756184418625975 L 0.22444608526984614 0.8638111646349255 L 0.22844608526984614 0.8431789158325426 L 0.24025949711384575 0.8313706082249569 L 0.2525498369328765 0.8195339639170035 L 0.25654983693287653 0.7991044346090337 L 0.2685674390935559 0.7872975978237146 L 0.29765575917635634 0.7922589337795309 L 0.3097507916199358 0.7802269820961263 L 0.3137507916199358 0.7599598469044557 L 0.333857997156139 0.7560802193783613 L 0.3458717112026186 0.7439669492978567 L 0.3578597845987667 0.7318280385670208 L 0.3620359801442541 0.7118772499855239 L 0.3817616439850388 0.7074759296993245 L 0.3936766711099726 0.6952639726972742 L 0.40556854685161364 0.683028864311931 L 0.4174378303884016 0.6707711637217351 L 0.429285060835839 0.6584914100421883 L 0.43405723925278195 0.6391366043321469 L 0.44599508947868277 0.6269474704310637 L 0.45791533561256736 0.6147407324379643 L 0.4698183854119781 0.6025167981103908 L 0.48170463578028744 0.590276064351716 L 0.499933426674645 0.5843778711190893 L 0.5116400421941286 0.5719575025115889 L 0.5233283807832819 0.5595188569737582 L 0.5273283807832819 0.5352431193194616 L 0.5408971259102958 0.5288336338468038 L 0.5470928995977999 0.5109024234073237 L 0.5590315627451313 0.49871410242767106 L 0.5709586163839979 0.48651417193955354 L 0.5879859661201255 0.479414537548697 L 0.5997241604116808 0.467025747713268 L 0.6114493907645265 0.45462399393912983 L 0.6231619694523993 0.4422095885000184 L 0.63486220408207 0.4297828390027049 L 0.6465503978272547 0.41734404862090546 L 0.6541453304504481 0.40081199711711485 L 0.6659889889912132 0.38852867153089576 L 0.6815457034276985 0.37995840184039686 L 0.6931886839543056 0.36747439824001965 L 0.7048210800097061 0.3549798101684362 L 0.7164431722019107 0.3424749182336566 L 0.7280552379324998 0.3299599998372617 L 0.7368639969617875 0.3146417747395652 L 0.7512503843628306 0.3049011780136243 L 0.7628340049751814 0.2923578144989909 L 0.7744086791752977 0.27980550457212316 L 0.7859746701478566 0.2672445114176979 L 0.7975322385482507 0.25467509569110797 L 0.8074543332762202 0.24047020629209329 L 0.8177669966929805 0.2266558855818693 L 0.8288126252337785 0.21357452999568316 L 0.838863701018514 0.19949862165343468 L 0.8502654950628223 0.18677343157075874 L 0.8603529363391617 0.17273388872011414 L 0.8704611578964178 0.1587151261503859 L 0.8819045125025589 0.1460314966295431 L 0.8920490995514188 0.13204909955141877 Z"
          fill="black"
          stroke="black"
          stroke-width="0.006"
          stroke-linejoin="round"
          stroke-linecap="round" />
</svg>