<svg xmlns="http://www.w3.org/2000/svg"
     viewBox="0 0 1 1">
    <path d="M 0.1454558441227157 0.9054558441227157 L 0.1580177722626604 0.8938907881356762 L 0.17895467646264251 0.8907007082086743 L 0.19139889290788245 0.87901794052693 L 0.20380746191275317 0.8672995254048167 L 0.2161827981712495 0.8555478775363289 L 0.22852673683301258 0.8437648320711079 L 0.2408407661238134 0.8319518772349246 L 0.26119444087003063 0.8281785678541576 L 0.27337855229138897 0.8162356951485319 L 0.2776151983676288 0.7963453570977875 L 0.28982072389811314 0.7844238985012878 L 0.30200134229497444 0.7724775327711649 L 0.31415779379724196 0.7605070001464482 L 0.32629076765120224 0.7485129898734245 L 0.3384009101039103 0.7364961481991483 L 0.3431178767205623 0.7170861306888163 L 0.362555107066427 0.7123963769076969 L 0.3674389347201984 0.6931532204344841 L 0.37957313517000146 0.6811604367573031 L 0.39169035793872314 0.6691506753990406 L 0.4037910130905526 0.6571243464238861 L 0.42258027840634865 0.6517866276126979 L 0.427944188651848 0.633023553731213 L 0.43999746109191334 0.6209498420442944 L 0.45836761740943766 0.6151930142348345 L 0.46405917099509975 0.5967575836935125 L 0.48213820031028365 0.5907096288817122 L 0.499933426674645 0.5843778711190893 L 0.5116400421941286 0.5719575025115889 L 0.517670544593539 0.5538610207840152 L 0.5239675763440379 0.53603106840753 L 0.5466519029709123 0.5345884109074203 L 0.5530635681755087 0.5168730919850324 L 0.5648319350143896 0.5045144746969292 L 0.5765862156496663 0.4921417712052219 L 0.5883267416112451 0.4797553130398165 L 0.600053838871671 0.4673554261732582 L 0.60730970475826 0.45048430793286326 L 0.6234690251885487 0.4425166442361678 L 0.6351577410130691 0.43007837593370407 L 0.6468342821654982 0.41762793295914896 L 0.6584989509244568 0.40516561759112363 L 0.6665093710557328 0.3890490535954154 L 0.6783196646286304 0.37673236304132873 L 0.6901206596592999 0.3644063739450141 L 0.6987803888621862 0.3489391190209163 L 0.7136957229869514 0.33972746901869727 L 0.7282540817202199 0.33015884362498177 L 0.7398437884990463 0.31762156627682403 L 0.7514239091754834 0.3050747028262771 L 0.7629947152713804 0.29251852479518986 L 0.7724873262981555 0.277884151694981 L 0.7842224524881395 0.2654922937579808 L 0.7942468248628318 0.2513896820056891 L 0.8046336637930138 0.23764953680888695 L 0.8153868788139226 0.2242757677028115 L 0.8266681002431955 0.2114300050051001 L 0.8381516300591085 0.19878655069402917 L 0.8496448573394495 0.18615279384738587 L 0.8611477820842179 0.17352873446517036 L 0.8714288263110962 0.1596827945650644 L 0.8817292654668297 0.14585624959381394 L 0.8920490995514188 0.13204909955141877 Z"
          fill="black"
          stroke="black"
          stroke-width="0.006"
          stroke-linejoin="round"
          stroke-linecap="round" />
</svg>