<svg xmlns="http://www.w3.org/2000/svg"
     viewBox="0 0 1 1">
    <path d="M 0.15333503397022297 0.913335033970223 L 0.1658674168323464 0.9017404327053622 L 0.17835364321306174 0.8900996749590935 L 0.19080107625882864 0.8784201238778763 L 0.20321325359434025 0.8667053170864039 L 0.22444608526984614 0.8638111646349255 L 0.23672956417292762 0.8519676594110229 L 0.2489785322633603 0.8400896433744715 L 0.2529785322633603 0.8195339639170035 L 0.26481292202163986 0.8076700648787828 L 0.2770497134129993 0.7957798721431579 L 0.2892610785210958 0.7838642531242704 L 0.3097507916199358 0.7802269820961263 L 0.3137507916199358 0.7599598469044557 L 0.32575025125799245 0.7479724734802148 L 0.3378672814540026 0.7359625195492406 L 0.3578597845987667 0.7318280385670208 L 0.3620359801442541 0.7118772499855239 L 0.37408876402173147 0.6998030497360171 L 0.3785657397457178 0.6801530413330195 L 0.3981338027911366 0.675594120251454 L 0.4101270354074111 0.6634603687407445 L 0.4221013653756708 0.65130771458202 L 0.43405723925278195 0.6391366043321469 L 0.45291542992495515 0.6338678108773361 L 0.46469956256562156 0.6215249593910185 L 0.4764636328160685 0.6091620455144813 L 0.48170463578028744 0.590276064351716 L 0.48721552053155287 0.5716599649759972 L 0.493004745082509 0.5533222053999693 L 0.5112044460909756 0.5473949222814518 L 0.5231796272559694 0.5352431193194616 L 0.5351423488496793 0.5230788567861873 L 0.5470928995977999 0.5109024234073237 L 0.5590315627451313 0.49871410242767106 L 0.5709586163839979 0.48651417193955354 L 0.5828743337533331 0.47430290518190454 L 0.594778983511828 0.4620805708134153 L 0.6018962692116037 0.44507087238620696 L 0.6093444613256754 0.42839208037329446 L 0.625996096152095 0.4209167310727299 L 0.6380338676799493 0.4088275184736001 L 0.6500638112560648 0.39673047792273164 L 0.6659889889912132 0.38852867153089576 L 0.6778233509672352 0.37623604937993366 L 0.6896486559216067 0.3639343702073209 L 0.7048210800097061 0.3549798101684362 L 0.7164431722019107 0.3424749182336566 L 0.7250725811166987 0.32697734302146064 L 0.7368639969617875 0.3146417747395652 L 0.7434417677934555 0.2970925614442492 L 0.7580126960892123 0.2875365056130218 L 0.7699747879203542 0.27537161331717974 L 0.7778875117183929 0.25915735298823417 L 0.7920565490725526 0.2491994062154099 L 0.8025724053245169 0.23558827834039003 L 0.8120547137832417 0.22094360267213053 L 0.8234513127573209 0.20821321751922547 L 0.8375285679696287 0.19816348860454938 L 0.84760561910551 0.18411355561344642 L 0.8603529363391617 0.17273388872011414 L 0.8717807057346156 0.16003467398858384 L 0.8819045125025589 0.1460314966295431 L 0.8920490995514188 0.13204909955141877 Z"
          fill="black"
          stroke="black"
          stroke-width="0.006"
          stroke-linejoin="round"
          stroke-linecap="round" />
</svg>