<svg xmlns="http://www.w3.org/2000/svg"
     viewBox="0 0 1 1">
    <path d="M 0.16242640687119286 0.9224264068711928 L 0.16647123564539917 0.902344251518415 L 0.18736914195677357 0.8991151737028054 L 0.199768325994636 0.8873873736136836 L 0.212126378370534 0.8756184418625975 L 0.22444608526984614 0.8638111646349255 L 0.22852673683301258 0.8437648320711079 L 0.2408407661238134 0.8319518772349246 L 0.25312614386202015 0.8201102708461471 L 0.26538396403962317 0.8082411068967661 L 0.2776151983676288 0.7963453570977875 L 0.29765575917635634 0.7922589337795309 L 0.3097507916199358 0.7802269820961263 L 0.31415779379724196 0.7605070001464482 L 0.3187235381462654 0.7409457603684877 L 0.3384009101039103 0.7364961481991483 L 0.3504888306596645 0.7244570846279186 L 0.362555107066427 0.7123963769076969 L 0.37460028935261863 0.7003145750669043 L 0.38662490313998704 0.6882122047272886 L 0.3986294523951684 0.6760897698554857 L 0.4106144217394771 0.6639477550728106 L 0.42258027840634865 0.6517866276126979 L 0.4345274739143922 0.6396068389937573 L 0.43999746109191334 0.6209498420442944 L 0.45836761740943766 0.6151930142348345 L 0.47026140190558413 0.602959814603997 L 0.48213820031028365 0.5907096288817122 L 0.48806338094109236 0.5725078253855368 L 0.5000447462135653 0.5603622065310256 L 0.512012708403796 0.5482031845942723 L 0.5184519327275589 0.530515424791051 L 0.5305385272011861 0.5184750351376941 L 0.5478392331700136 0.5116487569795373 L 0.5546812835431878 0.4943638232257274 L 0.5667379169347466 0.48229347249030224 L 0.5835558847355721 0.4749844561641436 L 0.5954383404318084 0.4627399277333957 L 0.60730970475826 0.45048430793286326 L 0.6191702448824569 0.43821786393007595 L 0.6310202239790808 0.4259408588997158 L 0.6388855206946799 0.40967917148833066 L 0.6546895330096991 0.40135619967636593 L 0.6665093710557328 0.3890490535954154 L 0.6783196646286304 0.37673236304132873 L 0.6901206596592999 0.3644063739450141 L 0.7019125990868261 0.3520713292455563 L 0.7166545144492152 0.3426862604809612 L 0.7254702686921388 0.32737503059690076 L 0.7372364709039448 0.3150142486817226 L 0.7465652144212055 0.3002160080719993 L 0.7562448828310235 0.2857686923548331 L 0.7704181770458486 0.2758150024426741 L 0.7823354488545979 0.26360529012443923 L 0.7908397291890641 0.24798258633192144 L 0.8046336637930138 0.23764953680888695 L 0.816719744826195 0.22560863371508386 L 0.8279190731543689 0.21268097791627355 L 0.8393977542380682 0.20003267487298879 L 0.8496448573394495 0.18615279384738587 L 0.8611477820842179 0.17352873446517036 L 0.8714288263110962 0.1596827945650644 L 0.8817292654668297 0.14585624959381394 L 0.8920490995514188 0.13204909955141877 Z"
          fill="black"
          stroke="black"
          stroke-width="0.006"
          stroke-linejoin="round"
          stroke-linecap="round" />
</svg>