<svg xmlns="http://www.w3.org/2000/svg"
     viewBox="0 0 1 1">
    <path d="M 0.1454558441227157 0.9054558441227157 L 0.14956430887992161 0.8854373247529375 L 0.17054021096851146 0.8822862427145433 L 0.18302945982112886 0.8706485074401765 L 0.20380746191275317 0.8672995254048167 L 0.2161827981712495 0.8555478775363289 L 0.22852673683301258 0.8437648320711079 L 0.2489785322633603 0.8400896433744715 L 0.26119444087003063 0.8281785678541576 L 0.27337855229138897 0.8162356951485319 L 0.28553198773244265 0.8042621464626014 L 0.29765575917635634 0.7922589337795309 L 0.3097507916199358 0.7802269820961263 L 0.31415779379724196 0.7605070001464482 L 0.333857997156139 0.7560802193783613 L 0.3458717112026186 0.7439669492978567 L 0.3578597845987667 0.7318280385670208 L 0.3698228839768475 0.7196641538181173 L 0.37460028935261863 0.7003145750669043 L 0.38662490313998704 0.6882122047272886 L 0.39169035793872314 0.6691506753990406 L 0.3969676044416281 0.6503009377749616 L 0.4158754959768583 0.6450818451832075 L 0.427944188651848 0.633023553731213 L 0.43999746109191334 0.6209498420442944 L 0.4520356722532537 0.6088610690786507 L 0.46405917099509975 0.5967575836935125 L 0.4699983934703899 0.5785698220418185 L 0.48212835807431603 0.5665728025187604 L 0.49424709822328367 0.5545645585407439 L 0.5063548722140531 0.5425453484045293 L 0.5184519327275589 0.530515424791051 L 0.5251674019446106 0.5131039098811186 L 0.5373905631590233 0.501200086968547 L 0.544530632071986 0.4842131717545257 L 0.556889618219827 0.47244517377538253 L 0.5692433141085532 0.46067188553712474 L 0.5862073435520834 0.4535089308536706 L 0.602851581366896 0.4460261845414992 L 0.614871464576365 0.433919083623984 L 0.6227451899111042 0.4176658248317391 L 0.6349111399592706 0.4057047907529215 L 0.6508801150949415 0.3975467817616083 L 0.6628666966040951 0.38540637914377773 L 0.6748454689988647 0.3732581674115631 L 0.6868166334954477 0.36110234778116185 L 0.7019125990868261 0.3520713292455563 L 0.7166545144492152 0.3426862604809612 L 0.7254702686921388 0.32737503059690076 L 0.7372364709039448 0.3150142486817226 L 0.7465652144212055 0.3002160080719993 L 0.7584948269778092 0.2880186365016187 L 0.7683490277935416 0.27374585319036715 L 0.7804484452210564 0.2617182864908977 L 0.7908397291890641 0.24798258633192144 L 0.803114841763595 0.23613071477946818 L 0.8153868788139226 0.2242757677028115 L 0.8279190731543689 0.21268097791627355 L 0.8393977542380682 0.20003267487298879 L 0.8508861327861952 0.18739406929413163 L 0.8611477820842179 0.17352873446517036 L 0.8714288263110962 0.1596827945650644 L 0.8817292654668297 0.14585624959381394 L 0.8920490995514188 0.13204909955141877 Z"
          fill="black"
          stroke="black"
          stroke-width="0.006"
          stroke-linejoin="round"
          stroke-linecap="round" />
</svg>