<svg xmlns="http://www.w3.org/2000/svg"
     viewBox="0 0 1 1">
    <path d="M 0.15333503397022297 0.913335033970223 L 0.15733503397022297 0.8926831505095707 L 0.16133503397022297 0.8720686774716698 L 0.16533503397022298 0.851518374670454 L 0.16933503397022298 0.8310528179816288 L 0.1801784758130784 0.8195435551781577 L 0.201574589859006 0.8168126850971014 L 0.21410239166530204 0.8052135027764131 L 0.2352606290585683 0.8022447560426953 L 0.2476816614821417 0.7905388043392846 L 0.2685674390935559 0.7872975978237146 L 0.2808663978658352 0.7754695724690098 L 0.293144828780733 0.7636210192569235 L 0.3136106405552494 0.7599598469044557 L 0.32575025125799245 0.7479724734802148 L 0.3378672814540026 0.7359625195492406 L 0.34996233394972864 0.7239305879179827 L 0.3620359801442541 0.7118772499855239 L 0.37408876402173147 0.6998030497360171 L 0.3861212054278452 0.6877085070151469 L 0.40556854685161364 0.683028864311931 L 0.4174378303884016 0.6707711637217351 L 0.4221013653756708 0.65130771458202 L 0.44111075917693643 0.6461901242563014 L 0.44599508947868277 0.6269474704310637 L 0.45791533561256736 0.6147407324379643 L 0.4764636328160685 0.6091620455144813 L 0.48170463578028744 0.590276064351716 L 0.4935744736030989 0.5780189180475434 L 0.4992165107863822 0.5595339711038425 L 0.5172664134371288 0.5534568896276051 L 0.5231796272559694 0.5352431193194616 L 0.5293875717890628 0.5173240797255707 L 0.541495397806198 0.5053049216157218 L 0.5590315627451313 0.49871410242767106 L 0.5709586163839979 0.48651417193955354 L 0.5828743337533331 0.47430290518190454 L 0.5898338066119754 0.45713539391356256 L 0.6018962692116037 0.44507087238620696 L 0.6139502973679167 0.43299791641553576 L 0.625996096152095 0.4209167310727299 L 0.6380338676799493 0.4088275184736001 L 0.6541453304504481 0.40081199711711485 L 0.6659889889912132 0.38852867153089576 L 0.6741009985067721 0.37251369691947045 L 0.6861086278889079 0.3603943421746221 L 0.6981092009569061 0.3482679311156363 L 0.7101029047827737 0.3361346508145197 L 0.7220899243008976 0.3239946862056596 L 0.7368639969617875 0.3146417747395652 L 0.7486475121730389 0.3022983058238326 L 0.7628340049751814 0.2923578144989909 L 0.7721917335478259 0.27758855894465145 L 0.7839528805404907 0.26522272181033196 L 0.7938817788977853 0.25102463604064257 L 0.8058270239589858 0.23884289697485886 L 0.8163389259655458 0.2252278148544346 L 0.8274722971146641 0.21223420187656875 L 0.838863701018514 0.19949862165343468 L 0.8502654950628223 0.18677343157075874 L 0.8603529363391617 0.17273388872011414 L 0.8717807057346156 0.16003467398858384 L 0.8819045125025589 0.1460314966295431 L 0.8920490995514188 0.13204909955141877 Z"
          fill="black"
          stroke="black"
          stroke-width="0.006"
          stroke-linejoin="round"
          stroke-linecap="round" />
</svg>