<svg xmlns="http://www.w3.org/2000/svg"
     viewBox="0 0 1 1">
    <path d="M 0.15333503397022297 0.913335033970223 L 0.17492469902813795 0.9107977149011538 L 0.18736914195677357 0.8991151737028054 L 0.199768325994636 0.8873873736136836 L 0.212126378370534 0.8756184418625975 L 0.22444608526984614 0.8638111646349255 L 0.23672956417292762 0.8519676594110229 L 0.2489785322633603 0.8400896433744715 L 0.26119444087003063 0.8281785678541576 L 0.27337855229138897 0.8162356951485319 L 0.28553198773244265 0.8042621464626014 L 0.29765575917635634 0.7922589337795309 L 0.3097507916199358 0.7802269820961263 L 0.3218179391851377 0.7681671455343441 L 0.333857997156139 0.7560802193783613 L 0.3458717112026186 0.7439669492978567 L 0.34996233394972864 0.7239305879179827 L 0.3620359801442541 0.7118772499855239 L 0.3817616439850388 0.7074759296993245 L 0.3861212054278452 0.6877085070151469 L 0.40556854685161364 0.683028864311931 L 0.4174378303884016 0.6707711637217351 L 0.429285060835839 0.6584914100421883 L 0.44111075917693643 0.6461901242563014 L 0.45291542992495515 0.6338678108773361 L 0.45791533561256736 0.6147407324379643 L 0.4698183854119781 0.6025167981103908 L 0.4882081037302305 0.596779532301659 L 0.4935744736030989 0.5780189180475434 L 0.4992165107863822 0.5595339711038425 L 0.5172664134371288 0.5534568896276051 L 0.5231796272559694 0.5352431193194616 L 0.5293875717890628 0.5173240797255707 L 0.541495397806198 0.5053049216157218 L 0.5535937137427018 0.4932762534252415 L 0.5604068677608697 0.4759624233164253 L 0.5675394366529558 0.45896800808152727 L 0.5749982759124171 0.44229986321400444 L 0.5923431476586808 0.4355177508332841 L 0.6139502973679167 0.43299791641553576 L 0.625996096152095 0.4209167310727299 L 0.6380338676799493 0.4088275184736001 L 0.6541453304504481 0.40081199711711485 L 0.6659889889912132 0.38852867153089576 L 0.6815457034276985 0.37995840184039686 L 0.6931886839543056 0.36747439824001965 L 0.7014651404833061 0.35162387064203626 L 0.7132730384923422 0.3393047845240882 L 0.7250725811166987 0.32697734302146064 L 0.7340704423956074 0.31184822017338515 L 0.7434417677934555 0.2970925614442492 L 0.7531913872032431 0.28271519672705264 L 0.7633239510379392 0.26872077643476466 L 0.775865722111027 0.2571355633808683 L 0.7847556297716218 0.24189848691447913 L 0.799317786690048 0.23233365970592118 L 0.810626643055807 0.21951553194469584 L 0.8247916408764353 0.2095535456383399 L 0.8361934349207434 0.19682835555566408 L 0.8489355570841661 0.18544349359210258 L 0.8603529363391617 0.17273388872011414 L 0.8717807057346156 0.16003467398858384 L 0.8819045125025589 0.1460314966295431 L 0.8920490995514188 0.13204909955141877 Z"
          fill="black"
          stroke="black"
          stroke-width="0.006"
          stroke-linejoin="round"
          stroke-linecap="round" />
</svg>