<svg xmlns="http://www.w3.org/2000/svg"
     viewBox="0 0 1 1">
    <path d="M 0.15394112549695427 0.9139411254969543 L 0.16647123564539917 0.902344251518415 L 0.17895467646264251 0.8907007082086743 L 0.19139889290788245 0.87901794052693 L 0.19548854545497232 0.8589806089470359 L 0.1996562239740562 0.8390213033391356 L 0.22032390949309755 0.8355620047311928 L 0.22456523384471952 0.8156763449558306 L 0.24505784685400964 0.8120419738381366 L 0.24939478753609154 0.7922519303932345 L 0.2617816196380012 0.7805117783681599 L 0.2663156180633836 0.7609187926665583 L 0.27875299432009054 0.7492291847962811 L 0.29883750302145046 0.7451867093706568 L 0.3187235381462654 0.7409457603684877 L 0.3309301090052021 0.7290253471004401 L 0.33574692278146007 0.7097151767497142 L 0.348019553245586 0.6978608230868558 L 0.353116225455358 0.6788305111696437 L 0.3725213672000159 0.6741086687873175 L 0.3847512634822779 0.6622115809425954 L 0.3969676044416281 0.6503009377749616 L 0.4009676044416281 0.6249674978947365 L 0.4147776181267596 0.6198569832061247 L 0.42707949225887154 0.6080318732112525 L 0.4520356722532537 0.6088610690786507 L 0.46405917099509975 0.5967575836935125 L 0.47606829689033675 0.5846397254617653 L 0.48806338094109236 0.5725078253855368 L 0.5058423942038469 0.5661598545213072 L 0.512012708403796 0.5482031845942723 L 0.5239675763440379 0.53603106840753 L 0.5305385272011861 0.5184750351376941 L 0.5426148981645185 0.5064244219740421 L 0.5597566092787887 0.4994391489613283 L 0.5765862156496663 0.4921417712052219 L 0.5883267416112451 0.4797553130398165 L 0.600053838871671 0.4673554261732582 L 0.616225951540988 0.45940055471559127 L 0.6234690251885487 0.4425166442361678 L 0.6310202239790808 0.4259408588997158 L 0.642859901430089 0.4136535522237398 L 0.6546895330096991 0.40135619967636593 L 0.6628666966040951 0.38540637914377773 L 0.6748454689988647 0.3732581674115631 L 0.6835126073315955 0.3577983216173097 L 0.6956481786375461 0.34580690879627635 L 0.7107369315246874 0.33676867755643336 L 0.7254702686921388 0.32737503059690076 L 0.7346291533088435 0.31240693108662115 L 0.7441358670440666 0.2977866606948603 L 0.7562448828310235 0.2857686923548331 L 0.7683490277935416 0.27374585319036715 L 0.7804484452210564 0.2617182864908977 L 0.7908397291890641 0.24798258633192144 L 0.8015960197341763 0.23461189275004937 L 0.8127211467893779 0.22161003567826673 L 0.825417127332022 0.21017903209392663 L 0.8369055058801489 0.19754042651506956 L 0.8496448573394495 0.18615279384738587 L 0.8611477820842179 0.17352873446517036 L 0.8714288263110962 0.1596827945650644 L 0.8817292654668297 0.14585624959381394 L 0.8920490995514188 0.13204909955141877 Z"
          fill="black"
          stroke="black"
          stroke-width="0.006"
          stroke-linejoin="round"
          stroke-linecap="round" />
</svg>