<svg xmlns="http://www.w3.org/2000/svg"
     viewBox="0 0 1 1">
    <path d="M 0.12848528137423856 0.8884852813742385 L 0.13265738211444403 0.8685303979874599 L 0.14529681448611828 0.8570428462321501 L 0.14955172747411455 0.8371707750931622 L 0.1705317960816298 0.8340238595736934 L 0.18312964977686289 0.8224947291419422 L 0.20391825481326745 0.8191563500513628 L 0.22456523384471952 0.8156763449558306 L 0.2289212528379886 0.7959053798221156 L 0.2414001992843257 0.7842573421414686 L 0.2617816196380012 0.7805117783681599 L 0.2741506533416268 0.7687538279448014 L 0.2865024436450519 0.7569786341212423 L 0.3064976484093462 0.7528468547585525 L 0.3187235381462654 0.7409457603684877 L 0.3309301090052021 0.7290253471004401 L 0.3431178767205623 0.7170861306888163 L 0.3552873301560065 0.7051285999972763 L 0.3674389347201984 0.6931532204344841 L 0.37957313517000146 0.6811604367573031 L 0.3986294523951684 0.6760897698554857 L 0.4106144217394771 0.6639477550728106 L 0.4158754959768583 0.6450818451832075 L 0.4213609033893038 0.6264402684686688 L 0.43353847667539247 0.6144908576277734 L 0.4393717819408858 0.5961971787662828 L 0.44545247826364653 0.5781508909620593 L 0.45785858663049617 0.5664300152019248 L 0.47025831234076343 0.5547027567852078 L 0.4826518022427203 0.5429692625601806 L 0.50069703602431 0.5368875122147864 L 0.5129362891110798 0.5249997811745719 L 0.5197962766880353 0.5077327846245432 L 0.5373905631590233 0.501200086968547 L 0.544530632071986 0.4842131717545257 L 0.5618137675772867 0.47736932313284236 L 0.5787850278598992 0.4702135992884706 L 0.5908228419919459 0.45812442929353314 L 0.602851581366896 0.4460261845414992 L 0.6191702448824569 0.43821786393007595 L 0.6310202239790808 0.4259408588997158 L 0.6468342821654982 0.41762793295914896 L 0.6546895330096991 0.40135619967636593 L 0.6665093710557328 0.3890490535954154 L 0.6748454689988647 0.3732581674115631 L 0.6901206596592999 0.3644063739450141 L 0.7019125990868261 0.3520713292455563 L 0.7166545144492152 0.3426862604809612 L 0.7254702686921388 0.32737503059690076 L 0.7372364709039448 0.3150142486817226 L 0.7538532565526223 0.30750405020341604 L 0.7629947152713804 0.29251852479518986 L 0.7745564755504624 0.27995330094728793 L 0.7823354488545979 0.26360529012443923 L 0.7942468248628318 0.2513896820056891 L 0.8046336637930138 0.23764953680888695 L 0.816719744826195 0.22560863371508386 L 0.8279190731543689 0.21268097791627355 L 0.8381516300591085 0.19878655069402917 L 0.8496448573394495 0.18615279384738587 L 0.8611477820842179 0.17352873446517036 L 0.8714288263110962 0.1596827945650644 L 0.8817292654668297 0.14585624959381394 L 0.8920490995514188 0.13204909955141877 Z"
          fill="black"
          stroke="black"
          stroke-width="0.006"
          stroke-linejoin="round"
          stroke-linecap="round" />
</svg>