<svg xmlns="http://www.w3.org/2000/svg"
     viewBox="0 0 1 1">
    <path d="M 0.15333503397022297 0.913335033970223 L 0.17492469902813795 0.9107977149011538 L 0.18736914195677357 0.8991151737028054 L 0.19136914195677357 0.8784201238778763 L 0.212126378370534 0.8756184418625975 L 0.22444608526984614 0.8638111646349255 L 0.23672956417292762 0.8519676594110229 L 0.2489785322633603 0.8400896433744715 L 0.26119444087003063 0.8281785678541576 L 0.27337855229138897 0.8162356951485319 L 0.28553198773244265 0.8042621464626014 L 0.28953198773244265 0.7838642531242704 L 0.29353198773244266 0.7553180378373221 L 0.29753198773244266 0.743545249644679 L 0.3176425053598459 0.7398647275820681 L 0.3298628517053866 0.7279580898006247 L 0.34206488330069057 0.7160331372689446 L 0.3620359801442541 0.7118772499855239 L 0.37408876402173147 0.6998030497360171 L 0.37808876402173147 0.672597575650892 L 0.3832643146701825 0.6607246321304999 L 0.39550544544543 0.6488387787787634 L 0.4077339744553343 0.6369403236616835 L 0.4270037193286274 0.6320830844079924 L 0.4390747490324104 0.6200271299847914 L 0.4511311086595131 0.6079565054849101 L 0.4631731380078877 0.5958715507063004 L 0.4686976998804013 0.5772691284518299 L 0.48721552053155287 0.5716599649759972 L 0.5054282764902555 0.5657457368077158 L 0.5172664134371288 0.5534568896276051 L 0.5290892454164826 0.5411527374799747 L 0.5466519029709123 0.5345884109074203 L 0.552690401389402 0.5164999251989256 L 0.5644694117475608 0.5041519514301005 L 0.5709586163839979 0.48651417193955354 L 0.5879859661201255 0.479414537548697 L 0.5997241604116808 0.467025747713268 L 0.616225951540988 0.45940055471559127 L 0.6277678054946407 0.4468154245422597 L 0.63486220408207 0.4297828390027049 L 0.6465503978272547 0.41734404862090546 L 0.6623083688392144 0.40897503550588127 L 0.6737947199590082 0.3963344024986908 L 0.6852680558881616 0.38368075430086007 L 0.6967287119870043 0.3710144262727184 L 0.708177019536106 0.35833574969483617 L 0.7164431722019107 0.3424749182336566 L 0.7250725811166987 0.32697734302146064 L 0.7368639969617875 0.3146417747395652 L 0.7486475121730389 0.3022983058238326 L 0.7604233505321968 0.28994716005600635 L 0.7699747879203542 0.27537161331717974 L 0.7799093013257589 0.26117914259560016 L 0.7920565490725526 0.2491994062154099 L 0.8041997146417513 0.23721558765762443 L 0.8134827845106763 0.22237167339956523 L 0.8247916408764353 0.2095535456383399 L 0.8361934349207434 0.19682835555566408 L 0.8502654950628223 0.18677343157075874 L 0.8603529363391617 0.17273388872011414 L 0.8717807057346156 0.16003467398858384 L 0.8819045125025589 0.1460314966295431 L 0.8920490995514188 0.13204909955141877 Z"
          fill="black"
          stroke="black"
          stroke-width="0.006"
          stroke-linejoin="round"
          stroke-linecap="round" />
</svg>