<svg xmlns="http://www.w3.org/2000/svg"
     viewBox="0 0 1 1">
    <path d="M 0.1454558441227157 0.9054558441227157 L 0.1580177722626604 0.8938907881356762 L 0.17054021096851146 0.8822862427145433 L 0.17466002673437528 0.8622790743534229 L 0.1871696289971915 0.850661692489255 L 0.20791951107265283 0.8472845904377322 L 0.22032390949309755 0.8355620047311928 L 0.23270299998426644 0.8238141110953776 L 0.24505784685400964 0.8120419738381366 L 0.26538396403962317 0.8082411068967661 L 0.2776151983676288 0.7963453570977875 L 0.28982072389811314 0.7844238985012878 L 0.30200134229497444 0.7724775327711649 L 0.31415779379724196 0.7605070001464482 L 0.32629076765120224 0.7485129898734245 L 0.3384009101039103 0.7364961481991483 L 0.3431178767205623 0.7170861306888163 L 0.3552873301560065 0.7051285999972763 L 0.3602775800877782 0.6859918658020638 L 0.37957313517000146 0.6811604367573031 L 0.39169035793872314 0.6691506753990406 L 0.3969676044416281 0.6503009377749616 L 0.4158754959768583 0.6450818451832075 L 0.427944188651848 0.633023553731213 L 0.43353847667539247 0.6144908576277734 L 0.4520356722532537 0.6088610690786507 L 0.47026140190558413 0.602959814603997 L 0.48213820031028365 0.5907096288817122 L 0.4939984038078687 0.5784428482523131 L 0.5000447462135653 0.5603622065310256 L 0.512012708403796 0.5482031845942723 L 0.5294832199605168 0.541546712024009 L 0.5359096524577616 0.5238461603942695 L 0.5530635681755087 0.5168730919850324 L 0.5699072607499904 0.5095898004325301 L 0.5765862156496663 0.4921417712052219 L 0.5883267416112451 0.4797553130398165 L 0.5954383404318084 0.4627399277333957 L 0.602851581366896 0.4460261845414992 L 0.6191702448824569 0.43821786393007595 L 0.6351577410130691 0.43007837593370407 L 0.642859901430089 0.4136535522237398 L 0.6508801150949415 0.3975467817616083 L 0.6628666966040951 0.38540637914377773 L 0.6748454689988647 0.3732581674115631 L 0.6835126073315955 0.3577983216173097 L 0.6987803888621862 0.3489391190209163 L 0.7077781400624236 0.3338098860941695 L 0.7171188296078959 0.3190235915126578 L 0.7268072005235391 0.3045849783013168 L 0.7417065196669277 0.2953573133177214 L 0.7562448828310235 0.2857686923548331 L 0.7683490277935416 0.27374585319036715 L 0.7804484452210564 0.2617182864908977 L 0.7908397291890641 0.24798258633192144 L 0.8015960197341763 0.23461189275004937 L 0.8140540128016502 0.2229429016905391 L 0.8241661544208485 0.20892805918275317 L 0.8344132575222297 0.19504817815715036 L 0.8459210309992121 0.1824289675071486 L 0.8611477820842179 0.17352873446517036 L 0.8714288263110962 0.1596827945650644 L 0.8817292654668297 0.14585624959381394 L 0.8920490995514188 0.13204909955141877 Z"
          fill="black"
          stroke="black"
          stroke-width="0.006"
          stroke-linejoin="round"
          stroke-linecap="round" />
</svg>