<svg xmlns="http://www.w3.org/2000/svg"
     viewBox="0 0 1 1">
    <path d="M 0.13697056274847713 0.8969705627484772 L 0.1580177722626604 0.8938907881356762 L 0.17054021096851146 0.8822862427145433 L 0.18302945982112886 0.8706485074401765 L 0.20380746191275317 0.8672995254048167 L 0.22444608526984614 0.8638111646349255 L 0.22852673683301258 0.8437648320711079 L 0.2408407661238134 0.8319518772349246 L 0.25312614386202015 0.8201102708461471 L 0.26538396403962317 0.8082411068967661 L 0.2776151983676288 0.7963453570977875 L 0.28982072389811314 0.7844238985012878 L 0.30200134229497444 0.7724775327711649 L 0.3064976484093462 0.7528468547585525 L 0.32629076765120224 0.7485129898734245 L 0.3458717112026186 0.7439669492978567 L 0.3578597845987667 0.7318280385670208 L 0.362555107066427 0.7123963769076969 L 0.37460028935261863 0.7003145750669043 L 0.38662490313998704 0.6882122047272886 L 0.3986294523951684 0.6760897698554857 L 0.4037910130905526 0.6571243464238861 L 0.42258027840634865 0.6517866276126979 L 0.4345274739143922 0.6396068389937573 L 0.4464564455084342 0.6274088264608152 L 0.45836761740943766 0.6151930142348345 L 0.47026140190558413 0.602959814603997 L 0.48213820031028365 0.5907096288817122 L 0.4939984038078687 0.5784428482523131 L 0.5058423942038469 0.5661598545213072 L 0.512012708403796 0.5482031845942723 L 0.5239675763440379 0.53603106840753 L 0.5359096524577616 0.5238461603942695 L 0.5478392331700136 0.5116487569795373 L 0.5597566092787887 0.4994391489613283 L 0.5716620662922065 0.4872176218477621 L 0.5787850278598992 0.4702135992884706 L 0.5908228419919459 0.45812442929353314 L 0.602851581366896 0.4460261845414992 L 0.614871464576365 0.433919083623984 L 0.6268827069450924 0.42180334186572743 L 0.6388855206946799 0.40967917148833066 L 0.6546895330096991 0.40135619967636593 L 0.6665093710557328 0.3890490535954154 L 0.6748454689988647 0.3732581674115631 L 0.6901206596592999 0.3644063739450141 L 0.7050448093114661 0.35520353947019623 L 0.7166545144492152 0.3426862604809612 L 0.7282540817202199 0.33015884362498177 L 0.7398437884990463 0.31762156627682403 L 0.7538532565526223 0.30750405020341604 L 0.7629947152713804 0.29251852479518986 L 0.7724873262981555 0.277884151694981 L 0.7842224524881395 0.2654922937579808 L 0.7942468248628318 0.2513896820056891 L 0.8061524858224327 0.23916835883830576 L 0.8180526108384674 0.22694149972735625 L 0.8279190731543689 0.21268097791627355 L 0.8381516300591085 0.19878655069402917 L 0.8496448573394495 0.18615279384738587 L 0.8611477820842179 0.17352873446517036 L 0.8714288263110962 0.1596827945650644 L 0.8817292654668297 0.14585624959381394 L 0.8920490995514188 0.13204909955141877 Z"
          fill="black"
          stroke="black"
          stroke-width="0.006"
          stroke-linejoin="round"
          stroke-linecap="round" />
</svg>