<svg xmlns="http://www.w3.org/2000/svg"
     viewBox="0 0 1 1">
    <path d="M 0.15394112549695427 0.9139411254969543 L 0.16647123564539917 0.902344251518415 L 0.17895467646264251 0.8907007082086743 L 0.18302945982112886 0.8706485074401765 L 0.1871696289971915 0.850661692489255 L 0.20791951107265283 0.8472845904377322 L 0.22032390949309755 0.8355620047311928 L 0.2408407661238134 0.8319518772349246 L 0.25312614386202015 0.8201102708461471 L 0.26538396403962317 0.8082411068967661 L 0.2776151983676288 0.7963453570977875 L 0.28198568861986995 0.7765888632230447 L 0.2865024436450519 0.7569786341212423 L 0.2911773576335547 0.737526563982761 L 0.31115630864132865 0.7333785308635509 L 0.3309301090052021 0.7290253471004401 L 0.3504888306596645 0.7244570846279186 L 0.362555107066427 0.7123963769076969 L 0.37460028935261863 0.7003145750669043 L 0.38662490313998704 0.6882122047272886 L 0.3986294523951684 0.6760897698554857 L 0.4106144217394771 0.6639477550728106 L 0.42258027840634865 0.6517866276126979 L 0.4345274739143922 0.6396068389937573 L 0.4464564455084342 0.6274088264608152 L 0.45836761740943766 0.6151930142348345 L 0.47026140190558413 0.602959814603997 L 0.47606829689033675 0.5846397254617653 L 0.48806338094109236 0.5725078253855368 L 0.5000447462135653 0.5603622065310256 L 0.517670544593539 0.5538610207840152 L 0.5294832199605168 0.541546712024009 L 0.5412807777143369 0.5292172856508448 L 0.5530635681755087 0.5168730919850324 L 0.5648319350143896 0.5045144746969292 L 0.5765862156496663 0.4921417712052219 L 0.5883267416112451 0.4797553130398165 L 0.600053838871671 0.4673554261732582 L 0.611767828149624 0.45494243132422724 L 0.6234690251885487 0.4425166442361678 L 0.6351577410130691 0.43007837593370407 L 0.6468342821654982 0.41762793295914896 L 0.6584989509244568 0.40516561759112363 L 0.6701520455073705 0.3926917280470531 L 0.6852680558881616 0.38368075430086007 L 0.6967287119870043 0.3710144262727184 L 0.7050448093114661 0.35520353947019623 L 0.7166545144492152 0.3426862604809612 L 0.7254702686921388 0.32737503059690076 L 0.7346291533088435 0.31240693108662115 L 0.7441358670440666 0.2977866606948603 L 0.7562448828310235 0.2857686923548331 L 0.7683490277935416 0.27374585319036715 L 0.7785614415875148 0.2598312828573562 L 0.7891361813521803 0.24627903849503757 L 0.803114841763595 0.23613071477946818 L 0.8153868788139226 0.2242757677028115 L 0.825417127332022 0.21017903209392663 L 0.8369055058801489 0.19754042651506956 L 0.8484035818927037 0.1849115184006401 L 0.8586749286551542 0.17105588103610656 L 0.8701972483287781 0.15845121658274633 L 0.8817292654668297 0.14585624959381394 L 0.8920490995514188 0.13204909955141877 Z"
          fill="black"
          stroke="black"
          stroke-width="0.006"
          stroke-linejoin="round"
          stroke-linecap="round" />
</svg>