<svg xmlns="http://www.w3.org/2000/svg"
     viewBox="0 0 1 1">
    <path d="M 0.12848528137423856 0.8884852813742385 L 0.1411108454971828 0.8769838613701987 L 0.15371127998024933 0.8654573117262812 L 0.15792116056086813 0.8455402081799157 L 0.16221287962384898 0.8257049431159125 L 0.18312964977686289 0.8224947291419422 L 0.20391825481326745 0.8191563500513628 L 0.22456523384471952 0.8156763449558306 L 0.23698954984599913 0.8039736768301261 L 0.25738937578785737 0.8002465186450003 L 0.2776151983676288 0.7963453570977875 L 0.28198568861986995 0.7765888632230447 L 0.2942518929700132 0.7647280834462037 L 0.3064976484093462 0.7528468547585525 L 0.3187235381462654 0.7409457603684877 L 0.3309301090052021 0.7290253471004401 L 0.3431178767205623 0.7170861306888163 L 0.3552873301560065 0.7051285999972763 L 0.37460028935261863 0.7003145750669043 L 0.37957313517000146 0.6811604367573031 L 0.39169035793872314 0.6691506753990406 L 0.4106144217394771 0.6639477550728106 L 0.42258027840634865 0.6517866276126979 L 0.4345274739143922 0.6396068389937573 L 0.4464564455084342 0.6274088264608152 L 0.45836761740943766 0.6151930142348345 L 0.47026140190558413 0.602959814603997 L 0.48213820031028365 0.5907096288817122 L 0.48806338094109236 0.5725078253855368 L 0.49424709822328367 0.5545645585407439 L 0.5063548722140531 0.5425453484045293 L 0.5184519327275589 0.530515424791051 L 0.5305385272011861 0.5184750351376941 L 0.5478392331700136 0.5116487569795373 L 0.5648319350143896 0.5045144746969292 L 0.5765862156496663 0.4921417712052219 L 0.593097598486918 0.48452616991548947 L 0.600053838871671 0.4673554261732582 L 0.616225951540988 0.45940055471559127 L 0.6234690251885487 0.4425166442361678 L 0.6351577410130691 0.43007837593370407 L 0.6468342821654982 0.41762793295914896 L 0.6546895330096991 0.40135619967636593 L 0.6665093710557328 0.3890490535954154 L 0.6783196646286304 0.37673236304132873 L 0.6868166334954477 0.36110234778116185 L 0.6987803888621862 0.3489391190209163 L 0.7107369315246874 0.33676867755643336 L 0.7254702686921388 0.32737503059690076 L 0.7372364709039448 0.3150142486817226 L 0.7489945617983444 0.3026453554491382 L 0.7584948269778092 0.2880186365016187 L 0.7704181770458486 0.2758150024426741 L 0.7804484452210564 0.2617182864908977 L 0.792543277025948 0.24968613416880528 L 0.803114841763595 0.23613071477946818 L 0.8140540128016502 0.2229429016905391 L 0.8266681002431955 0.2114300050051001 L 0.8381516300591085 0.19878655069402917 L 0.8496448573394495 0.18615279384738587 L 0.8611477820842179 0.17352873446517036 L 0.8714288263110962 0.1596827945650644 L 0.8817292654668297 0.14585624959381394 L 0.8920490995514188 0.13204909955141877 Z"
          fill="black"
          stroke="black"
          stroke-width="0.006"
          stroke-linejoin="round"
          stroke-linecap="round" />
</svg>