<svg xmlns="http://www.w3.org/2000/svg"
     viewBox="0 0 1 1">
    <path d="M 0.12606091526731328 0.8860609152673132 L 0.13869557024497176 0.8745685861179876 L 0.15130714698192618 0.863053178727958 L 0.1728665767872138 0.8604856244062614 L 0.19430012881814648 0.8577921923102101 L 0.20673904148713904 0.8461041208522184 L 0.23672956417292762 0.8519676594110229 L 0.2489785322633603 0.8400896433744715 L 0.26119444087003063 0.8281785678541576 L 0.27337855229138897 0.8162356951485319 L 0.28553198773244265 0.8042621464626014 L 0.29765575917635634 0.7922589337795309 L 0.3097507916199358 0.7802269820961263 L 0.3137507916199358 0.7599598469044557 L 0.333857997156139 0.7560802193783613 L 0.3378672814540026 0.7359625195492406 L 0.34996233394972864 0.7239305879179827 L 0.3620359801442541 0.7118772499855239 L 0.37408876402173147 0.6998030497360171 L 0.3861212054278452 0.6877085070151469 L 0.3981338027911366 0.675594120251454 L 0.4101270354074111 0.6634603687407445 L 0.4221013653756708 0.65130771458202 L 0.4270037193286274 0.6320830844079924 L 0.44599508947868277 0.6269474704310637 L 0.4511311086595131 0.6079565054849101 L 0.4565278906037972 0.58922630330221 L 0.4686976998804013 0.5772691284518299 L 0.4808565674600068 0.5653010119044513 L 0.493004745082509 0.5533222053999693 L 0.5051424787448224 0.5413329549352986 L 0.5113603909349429 0.523423882998435 L 0.5236327947284463 0.5115693026649543 L 0.5303003942229942 0.49410991803251797 L 0.5372801667354133 0.476962706417953 L 0.5551309934493056 0.4706865490048612 L 0.5726510690197483 0.4640796404483197 L 0.5848886297121226 0.45219021701370987 L 0.6018962692116037 0.44507087238620696 L 0.6093444613256754 0.42839208037329446 L 0.61712998822212 0.412050623142755 L 0.6337756026062966 0.4045692533999474 L 0.6459822920616817 0.3926489587283485 L 0.6620861235073157 0.38462580604699825 L 0.6815457034276985 0.37995840184039686 L 0.6931886839543056 0.36747439824001965 L 0.708177019536106 0.35833574969483617 L 0.7196133059114792 0.3456450519432251 L 0.7280552379324998 0.3299599998372617 L 0.7368639969617875 0.3146417747395652 L 0.7460446399832472 0.29969543363404094 L 0.7580126960892123 0.2875365056130218 L 0.7699747879203542 0.27537161331717974 L 0.7819310909331247 0.26320093220296603 L 0.7902313192473199 0.2473741763901772 L 0.8009450960072825 0.2339609690231556 L 0.8120547137832417 0.22094360267213053 L 0.8274722971146641 0.21223420187656875 L 0.8375285679696287 0.19816348860454938 L 0.8489355570841661 0.18544349359210258 L 0.8603529363391617 0.17273388872011414 L 0.8717807057346156 0.16003467398858384 L 0.8819045125025589 0.1460314966295431 L 0.8920490995514188 0.13204909955141877 Z"
          fill="black"
          stroke="black"
          stroke-width="0.006"
          stroke-linejoin="round"
          stroke-linecap="round" />
</svg>