<svg xmlns="http://www.w3.org/2000/svg"
     viewBox="0 0 1 1">
    <path d="M 0.15394112549695427 0.9139411254969543 L 0.16647123564539917 0.902344251518415 L 0.17054021096851146 0.8822862427145433 L 0.19139889290788245 0.87901794052693 L 0.19548854545497232 0.8589806089470359 L 0.20791951107265283 0.8472845904377322 L 0.22032390949309755 0.8355620047311928 L 0.2408407661238134 0.8319518772349246 L 0.25312614386202015 0.8201102708461471 L 0.27337855229138897 0.8162356951485319 L 0.2776151983676288 0.7963453570977875 L 0.29765575917635634 0.7922589337795309 L 0.30200134229497444 0.7724775327711649 L 0.31415779379724196 0.7605070001464482 L 0.32629076765120224 0.7485129898734245 L 0.3309301090052021 0.7290253471004401 L 0.33574692278146007 0.7097151767497142 L 0.348019553245586 0.6978608230868558 L 0.3602775800877782 0.6859918658020638 L 0.37957313517000146 0.6811604367573031 L 0.39169035793872314 0.6691506753990406 L 0.3969676044416281 0.6503009377749616 L 0.40917071354736795 0.6383770627537172 L 0.4213609033893038 0.6264402684686688 L 0.43353847667539247 0.6144908576277734 L 0.4520356722532537 0.6088610690786507 L 0.46405917099509975 0.5967575836935125 L 0.47606829689033675 0.5846397254617653 L 0.48212835807431603 0.5665728025187604 L 0.5000447462135653 0.5603622065310256 L 0.512012708403796 0.5482031845942723 L 0.5184519327275589 0.530515424791051 L 0.5359096524577616 0.5238461603942695 L 0.5478392331700136 0.5116487569795373 L 0.5597566092787887 0.4994391489613283 L 0.5765862156496663 0.4921417712052219 L 0.5883267416112451 0.4797553130398165 L 0.600053838871671 0.4673554261732582 L 0.604053838871671 0.4460261845414992 L 0.6191702448824569 0.43821786393007595 L 0.6351577410130691 0.43007837593370407 L 0.642859901430089 0.4136535522237398 L 0.6508801150949415 0.3975467817616083 L 0.6628666966040951 0.38540637914377773 L 0.6748454689988647 0.3732581674115631 L 0.6901206596592999 0.3644063739450141 L 0.7019125990868261 0.3520713292455563 L 0.7107369315246874 0.33676867755643336 L 0.7226864556640579 0.3245912175688198 L 0.7346291533088435 0.31240693108662115 L 0.7465652144212055 0.3002160080719993 L 0.7584948269778092 0.2880186365016187 L 0.7704181770458486 0.2758150024426741 L 0.7823354488545979 0.26360529012443923 L 0.7908397291890641 0.24798258633192144 L 0.8015960197341763 0.23461189275004937 L 0.8153868788139226 0.2242757677028115 L 0.8266681002431955 0.2114300050051001 L 0.8369055058801489 0.19754042651506956 L 0.8484035818927037 0.1849115184006401 L 0.859911355369686 0.17229230775063845 L 0.8714288263110962 0.1596827945650644 L 0.8817292654668297 0.14585624959381394 L 0.8920490995514188 0.13204909955141877 Z"
          fill="black"
          stroke="black"
          stroke-width="0.006"
          stroke-linejoin="round"
          stroke-linecap="round" />
</svg>