<svg xmlns="http://www.w3.org/2000/svg"
     viewBox="0 0 1 1">
    <path d="M 0.15394112549695427 0.9139411254969543 L 0.16647123564539917 0.902344251518415 L 0.17895467646264251 0.8907007082086743 L 0.199768325994636 0.8873873736136836 L 0.20380746191275317 0.8672995254048167 L 0.2161827981712495 0.8555478775363289 L 0.22852673683301258 0.8437648320711079 L 0.2408407661238134 0.8319518772349246 L 0.24505784685400964 0.8120419738381366 L 0.26538396403962317 0.8082411068967661 L 0.2776151983676288 0.7963453570977875 L 0.28982072389811314 0.7844238985012878 L 0.2942518929700132 0.7647280834462037 L 0.29883750302145046 0.7451867093706568 L 0.3187235381462654 0.7409457603684877 L 0.3309301090052021 0.7290253471004401 L 0.3431178767205623 0.7170861306888163 L 0.362555107066427 0.7123963769076969 L 0.37460028935261863 0.7003145750669043 L 0.38662490313998704 0.6882122047272886 L 0.3986294523951684 0.6760897698554857 L 0.4106144217394771 0.6639477550728106 L 0.42258027840634865 0.6517866276126979 L 0.4345274739143922 0.6396068389937573 L 0.43999746109191334 0.6209498420442944 L 0.4520356722532537 0.6088610690786507 L 0.4578569400846153 0.5905553527830281 L 0.47606829689033675 0.5846397254617653 L 0.48212835807431603 0.5665728025187604 L 0.49424709822328367 0.5545645585407439 L 0.5063548722140531 0.5425453484045293 L 0.5184519327275589 0.530515424791051 L 0.5305385272011861 0.5184750351376941 L 0.5373905631590233 0.501200086968547 L 0.5546812835431878 0.4943638232257274 L 0.5667379169347466 0.48229347249030224 L 0.5787850278598992 0.4702135992884706 L 0.5954383404318084 0.4627399277333957 L 0.60730970475826 0.45048430793286326 L 0.6234690251885487 0.4425166442361678 L 0.6310202239790808 0.4259408588997158 L 0.6468342821654982 0.41762793295914896 L 0.6584989509244568 0.40516561759112363 L 0.6665093710557328 0.3890490535954154 L 0.6783196646286304 0.37673236304132873 L 0.6901206596592999 0.3644063739450141 L 0.7019125990868261 0.3520713292455563 L 0.7136957229869514 0.33972746901869727 L 0.7254702686921388 0.32737503059690076 L 0.7346291533088435 0.31240693108662115 L 0.7465652144212055 0.3002160080719993 L 0.7584948269778092 0.2880186365016187 L 0.7704181770458486 0.2758150024426741 L 0.7823354488545979 0.26360529012443923 L 0.7908397291890641 0.24798258633192144 L 0.803114841763595 0.23613071477946818 L 0.8140540128016502 0.2229429016905391 L 0.8241661544208485 0.20892805918275317 L 0.8356593817011894 0.19629430233610995 L 0.8484035818927037 0.1849115184006401 L 0.859911355369686 0.17229230775063845 L 0.8714288263110962 0.1596827945650644 L 0.8817292654668297 0.14585624959381394 L 0.8920490995514188 0.13204909955141877 Z"
          fill="black"
          stroke="black"
          stroke-width="0.006"
          stroke-linejoin="round"
          stroke-linecap="round" />
</svg>