<svg xmlns="http://www.w3.org/2000/svg"
     viewBox="0 0 1 1">
    <path d="M 0.14424366106925304 0.904243661069253 L 0.15681013463655485 0.8926831505095707 L 0.16933814446934986 0.8810841762153816 L 0.19080107625882864 0.8784201238778763 L 0.20321325359434025 0.8667053170864039 L 0.20721325359434026 0.8461041208522184 L 0.22794082059444723 0.8431789158325426 L 0.24025949711384575 0.8313706082249569 L 0.2525498369328765 0.8195339639170035 L 0.25654983693287653 0.7991044346090337 L 0.26054983693287653 0.7788153235042712 L 0.2808663978658352 0.7754695724690098 L 0.293144828780733 0.7636210192569235 L 0.3218179391851377 0.7681671455343441 L 0.333857997156139 0.7560802193783613 L 0.3458717112026186 0.7439669492978567 L 0.3578597845987667 0.7318280385670208 L 0.3620359801442541 0.7118772499855239 L 0.37408876402173147 0.6998030497360171 L 0.3936766711099726 0.6952639726972742 L 0.3981338027911366 0.675594120251454 L 0.4101270354074111 0.6634603687407445 L 0.4221013653756708 0.65130771458202 L 0.4270037193286274 0.6320830844079924 L 0.43215440858613796 0.6131067895385189 L 0.4443468817064589 0.6011722785318558 L 0.4631731380078877 0.5958715507063004 L 0.48170463578028744 0.590276064351716 L 0.48721552053155287 0.5716599649759972 L 0.493004745082509 0.5533222053999693 L 0.5051424787448224 0.5413329549352986 L 0.5172700090954562 0.5293335011589483 L 0.5351423488496793 0.5230788567861873 L 0.5470928995977999 0.5109024234073237 L 0.5535937137427018 0.4932762534252415 L 0.5656827420724337 0.4812382976279894 L 0.5726510690197483 0.4640796404483197 L 0.5898338066119754 0.45713539391356256 L 0.6066728299880652 0.4498474331626684 L 0.6231619694523993 0.4422095885000184 L 0.6392952580470574 0.43421589296769236 L 0.6508086629009073 0.42160231369455814 L 0.6582268496448312 0.40489351631149806 L 0.6698918544751107 0.3924315370147933 L 0.6852680558881616 0.38368075430086007 L 0.6967287119870043 0.3710144262727184 L 0.708177019536106 0.35833574969483617 L 0.7196133059114792 0.3456450519432251 L 0.7310378947483008 0.3329426566530628 L 0.7396575515279676 0.31743532930574536 L 0.7512503843628306 0.3049011780136243 L 0.7580126960892123 0.2875365056130218 L 0.7699747879203542 0.27537161331717974 L 0.7799093013257589 0.26117914259560016 L 0.7920565490725526 0.2491994062154099 L 0.8041997146417513 0.23721558765762443 L 0.8163389259655458 0.2252278148544346 L 0.8288126252337785 0.21357452999568316 L 0.8415339671162846 0.20216888775120526 L 0.8515954330414784 0.18810336954941492 L 0.8616776792475888 0.17405863162854118 L 0.8717807057346156 0.16003467398858384 L 0.8819045125025589 0.1460314966295431 L 0.8920490995514188 0.13204909955141877 Z"
          fill="black"
          stroke="black"
          stroke-width="0.006"
          stroke-linejoin="round"
          stroke-linecap="round" />
</svg>