<svg xmlns="http://www.w3.org/2000/svg"
     viewBox="0 0 1 1">
    <path d="M 0.16242640687119286 0.9224264068711928 L 0.17492469902813795 0.9107977149011538 L 0.17892469902813796 0.8822862427145433 L 0.18302945982112886 0.8706485074401765 L 0.20380746191275317 0.8672995254048167 L 0.2161827981712495 0.8555478775363289 L 0.22032390949309755 0.8355620047311928 L 0.22456523384471952 0.8156763449558306 L 0.24505784685400964 0.8120419738381366 L 0.25738937578785737 0.8002465186450003 L 0.269698409002815 0.7884285677329738 L 0.28198568861986995 0.7765888632230447 L 0.2942518929700132 0.7647280834462037 L 0.3064976484093462 0.7528468547585525 L 0.31115630864132865 0.7333785308635509 L 0.3234593079064938 0.7215545460017319 L 0.3431178767205623 0.7170861306888163 L 0.362555107066427 0.7123963769076969 L 0.37460028935261863 0.7003145750669043 L 0.37957313517000146 0.6811604367573031 L 0.3986294523951684 0.6760897698554857 L 0.4106144217394771 0.6639477550728106 L 0.42258027840634865 0.6517866276126979 L 0.427944188651848 0.633023553731213 L 0.4464564455084342 0.6274088264608152 L 0.45836761740943766 0.6151930142348345 L 0.47026140190558413 0.602959814603997 L 0.48213820031028365 0.5907096288817122 L 0.4939984038078687 0.5784428482523131 L 0.5058423942038469 0.5661598545213072 L 0.517670544593539 0.5538610207840152 L 0.5294832199605168 0.541546712024009 L 0.5412807777143369 0.5292172856508448 L 0.5582879031810039 0.5220974269905275 L 0.5648319350143896 0.5045144746969292 L 0.5765862156496663 0.4921417712052219 L 0.5883267416112451 0.4797553130398165 L 0.600053838871671 0.4673554261732582 L 0.60730970475826 0.45048430793286326 L 0.6234690251885487 0.4425166442361678 L 0.6310202239790808 0.4259408588997158 L 0.6468342821654982 0.41762793295914896 L 0.6584989509244568 0.40516561759112363 L 0.6701520455073705 0.3926917280470531 L 0.6783196646286304 0.37673236304132873 L 0.6868166334954477 0.36110234778116185 L 0.6956481786375461 0.34580690879627635 L 0.7077781400624236 0.3338098860941695 L 0.7226864556640579 0.3245912175688198 L 0.7346291533088435 0.31240693108662115 L 0.7489945617983444 0.3026453554491382 L 0.7607447711245948 0.2902685806484043 L 0.7704181770458486 0.2758150024426741 L 0.7823354488545979 0.26360529012443923 L 0.7942468248628318 0.2513896820056891 L 0.8046336637930138 0.23764953680888695 L 0.8140540128016502 0.2229429016905391 L 0.825417127332022 0.21017903209392663 L 0.8369055058801489 0.19754042651506956 L 0.8484035818927037 0.1849115184006401 L 0.859911355369686 0.17229230775063845 L 0.8714288263110962 0.1596827945650644 L 0.8817292654668297 0.14585624959381394 L 0.8920490995514188 0.13204909955141877 Z"
          fill="black"
          stroke="black"
          stroke-width="0.006"
          stroke-linejoin="round"
          stroke-linecap="round" />
</svg>